<?xml version="1.0" encoding="utf-8"?>
<!-- Generator: Adobe Illustrator 24.3.0, SVG Export Plug-In . SVG Version: 6.00 Build 0)  -->
<svg version="1.1" baseProfile="tiny" xmlns="http://www.w3.org/2000/svg" xmlns:xlink="http://www.w3.org/1999/xlink" x="0px"
	 y="0px" viewBox="0 0 1000 1000" overflow="visible" xml:space="preserve">
<g id="Layer_2">
	<circle fill="#646464" cx="500" cy="500" r="500"/>
	
		<circle fill="none" stroke="#231F20" stroke-width="6.0484" stroke-linecap="round" stroke-linejoin="round" stroke-dasharray="57.4954,57.4954" cx="500" cy="500" r="475.81"/>
</g>
<g id="Layer_1">
	<g>
		<path fill-rule="evenodd" fill="#231F20" d="M210.63,384.01c13.17-55.72,29.61-109.99,61.18-157.61
			c9.03-13.6,19.56-25.72,31.14-36.85c5.52-5.3,9.75-5.99,11.66,3.22c0.09,0.49,0.09,1.07,0.34,1.45
			c14.05,21.46,6.21,36.66-8.65,54.93c-35.32,43.41-55.84,96.04-74.03,149.63c-1.11,3.29-1.48,7.2-3.38,9.81
			c-5.47,7.5-14.17,13.23-21.74,10.72c-6.33-2.11-0.65-11.54,0-17.63C207.79,395.74,209.43,389.9,210.63,384.01z"/>
		<g>
			<g>
				<path fill="#231F20" d="M330.48,368.45c0-7.72,3.74-11.83,10.75-11.83h9.87c6.95,0,10.75,4.11,10.75,11.83v8.54
					c0,0.83-0.45,1.32-1.19,1.32h-7.48c-0.82,0-1.19-0.49-1.19-1.32v-6.24c0-2.13-1.04-3.28-2.98-3.28h-5.39
					c-2.01,0-2.98,1.15-2.98,3.28v37.46c0,2.22,1.04,3.28,2.98,3.28h5.39c1.94,0,2.98-1.06,2.98-3.28v-11.01h-3.88
					c-0.83,0-1.2-0.49-1.2-1.31v-8.21c0-0.9,0.37-1.31,1.2-1.31h12.55c0.74,0,1.19,0.42,1.19,1.31v22.84
					c0,7.72-3.8,11.83-10.75,11.83h-9.87c-7.01,0-10.75-4.11-10.75-11.83V368.45z"/>
				<path fill="#231F20" d="M397.24,366.15c0,0.82-0.3,1.39-1.2,1.39h-18.68v16.43h14.26c0.75,0,1.2,0.49,1.2,1.39v8.13
					c0,0.9-0.45,1.4-1.2,1.4h-14.26v16.59h18.68c0.9,0,1.2,0.41,1.2,1.31v8.21c0,0.82-0.3,1.31-1.2,1.31h-27.49
					c-0.67,0-1.12-0.49-1.12-1.31v-63.08c0-0.82,0.45-1.31,1.12-1.31h27.49c0.9,0,1.2,0.49,1.2,1.31V366.15z"/>
				<path fill="#231F20" d="M432.75,388.49c0,5.5-1.88,9.11-5.45,10.84l5.15,21.51c0.23,0.98-0.22,1.48-1.04,1.48h-7.78
					c-0.74,0-1.11-0.41-1.27-1.15l-5.01-20.86h-5.15v20.7c0,0.82-0.45,1.31-1.19,1.31h-7.78c-0.74,0-1.19-0.49-1.19-1.31v-63.08
					c0-0.82,0.45-1.31,1.19-1.31h18.75c7.03,0,10.76,4.11,10.76,11.83V388.49z M419.6,389.48c1.94,0,2.98-1.15,2.98-3.28v-15.45
					c0-2.13-1.04-3.28-2.98-3.28h-7.4v22.01H419.6z"/>
				<path fill="#231F20" d="M457.45,356.62c7.01,0,10.75,4.11,10.75,11.83v8.7c0,0.83-0.37,1.31-1.19,1.31h-7.77
					c-0.75,0-1.2-0.49-1.2-1.31v-6.41c0-2.13-0.96-3.28-2.98-3.28h-3.59c-1.86,0-2.98,1.15-2.98,3.28v11.34l17.78,6.41
					c1.27,0.57,1.94,1.48,1.94,3.04v18.97c0,7.72-3.74,11.83-10.75,11.83h-8.37c-6.95,0-10.75-4.11-10.75-11.83v-8.62
					c0-0.9,0.45-1.31,1.19-1.31h7.78c0.82,0,1.19,0.41,1.19,1.31v6.33c0,2.22,1.12,3.28,2.98,3.28h3.59c1.94,0,2.98-1.06,2.98-3.28
					v-10.92l-17.7-6.41c-1.35-0.49-2.02-1.47-2.02-3.04v-19.38c0-7.72,3.8-11.83,10.75-11.83H457.45z"/>
				<path fill="#231F20" d="M499.51,356.62c0.82,0,1.19,0.49,1.19,1.31v8.22c0,0.82-0.37,1.31-1.19,1.31h-8.66v53.55
					c0,0.9-0.38,1.31-1.2,1.31h-7.77c-0.75,0-1.2-0.41-1.2-1.31v-53.55h-8.66c-0.74,0-1.19-0.49-1.19-1.31v-8.22
					c0-0.82,0.45-1.31,1.19-1.31H499.51z"/>
				<path fill="#231F20" d="M533.83,366.15c0,0.82-0.3,1.39-1.2,1.39h-18.68v16.43h14.26c0.75,0,1.2,0.49,1.2,1.39v8.13
					c0,0.9-0.45,1.4-1.2,1.4h-14.26v16.59h18.68c0.9,0,1.2,0.41,1.2,1.31v8.21c0,0.82-0.3,1.31-1.2,1.31h-27.49
					c-0.67,0-1.12-0.49-1.12-1.31v-63.08c0-0.82,0.45-1.31,1.12-1.31h27.49c0.9,0,1.2,0.49,1.2,1.31V366.15z"/>
				<path fill="#231F20" d="M604.16,356.62c0.98,0,1.49,0.66,1.43,1.72l-6.43,62.42c-0.08,1.06-0.59,1.56-1.57,1.56h-7.32
					c-0.9,0-1.41-0.49-1.64-1.48l-7.78-37.13L573,420.93c-0.21,0.9-0.74,1.39-1.64,1.39h-7.47c-0.96,0-1.49-0.49-1.56-1.56
					l-6.13-62.42c-0.08-1.06,0.45-1.72,1.41-1.72h7.11c0.89,0,1.49,0.57,1.56,1.56l2.92,38.44h0.37l7.4-38.52
					c0.22-0.98,0.75-1.48,1.65-1.48h4.48c0.9,0,1.43,0.49,1.64,1.48l7.33,38.52h0.37l3.06-38.44c0.08-0.98,0.67-1.56,1.57-1.56
					H604.16z"/>
				<path fill="#231F20" d="M640.95,366.15c0,0.82-0.3,1.39-1.2,1.39h-18.68v16.43h14.26c0.75,0,1.2,0.49,1.2,1.39v8.13
					c0,0.9-0.45,1.4-1.2,1.4h-14.26v16.59h18.68c0.9,0,1.2,0.41,1.2,1.31v8.21c0,0.82-0.3,1.31-1.2,1.31h-27.49
					c-0.67,0-1.12-0.49-1.12-1.31v-63.08c0-0.82,0.45-1.31,1.12-1.31h27.49c0.9,0,1.2,0.49,1.2,1.31V366.15z"/>
				<path fill="#231F20" d="M655.48,356.62c0.74,0,1.19,0.49,1.19,1.31v63.08c0,0.82-0.45,1.31-1.19,1.31h-7.78
					c-0.82,0-1.19-0.49-1.19-1.31v-63.08c0-0.82,0.37-1.31,1.19-1.31H655.48z"/>
				<path fill="#231F20" d="M692.98,356.62c0.74,0,1.19,0.49,1.19,1.31v63.08c0,0.82-0.45,1.31-1.19,1.31h-7.4
					c-0.67,0-1.12-0.33-1.35-1.07l-11.44-35.07h-0.37v34.82c0,0.82-0.37,1.31-1.19,1.31h-7.78c-0.74,0-1.19-0.49-1.19-1.31v-63.08
					c0-0.82,0.45-1.31,1.19-1.31h7.4c0.67,0,1.12,0.33,1.35,1.07l11.36,34.91h0.45v-34.66c0-0.82,0.37-1.31,1.19-1.31H692.98z"/>
			</g>
			<g>
				<path fill-rule="evenodd" fill="#231F20" d="M351.37,542.79c28.36,4.76,56.91,6,85.61,2.17c7.28-0.97,11.57,2.88,16.21,6.7
					c15.14,12.38,29.68,25.56,50.46,30.59c7.86,1.86,8.31,6.66,3.08,11.14c-30.38,25.95-63.24,48.95-101.15,65.57
					c-8.11,3.56-14.43,0.57-19.19-5.8c-22.35-29.96-39.2-62.06-48.37-97.25C335.34,545.58,338.81,540.68,351.37,542.79z"/>
				<path fill-rule="evenodd" fill="#231F20" d="M507.98,618.73c3.74,2.29,7.4,4.31,10.72,6.7c19.01,13.58,36.29,29.08,56.98,40.8
					c8.85,5.01,11.07,10.87,4.57,19.41c-17.5,23.21-35.84,45.61-58.52,65.15c-11.89,10.25-22.29,10.59-33.66,0.05
					c-22.24-20.63-41.21-43.37-56.54-68.55c-3.99-6.59-3.01-11.06,4.04-15.52c21.9-13.87,44.28-27.19,63.9-43.74
					C501.64,621.2,504.77,620.29,507.98,618.73z"/>
				<path fill-rule="evenodd" fill="#231F20" d="M680.1,555.11c-11.16,36.28-26.72,70.77-52,101.37
					c-6.99,8.46-15.04,8.59-24.47,3.58c-24.83-13.21-46.61-29.94-67.81-47.39c-7.13-5.87-6.41-11.18,0.22-17.03
					c12.89-11.36,25.57-22.94,36.06-36.2c7.93-10.04,18.29-13.55,32.28-12.6c20.54,1.37,41.21,0.69,61.64-2.8
					C675.32,542.46,682.85,543.74,680.1,555.11z"/>
				<path fill-rule="evenodd" fill="#231F20" d="M567.81,831.83c-0.44,0.95-1.11,3.15-2.34,5.06
					c-14.91,22.55-31.47,44.05-51.17,63.53c-9.9,9.79-20.51,8.09-28.49-1.11c-16.77-19.32-31.56-39.93-44.4-61.61
					c-4.68-7.89-2.54-13.6,5.09-18.69c15.93-10.64,31.76-21.44,47.52-32.23c5.88-4.07,11.53-6.52,18.34-1.45
					c17.22,12.76,34.58,25.42,51.85,38.13C566.72,825.3,568.35,827.61,567.81,831.83z"/>
				<path fill-rule="evenodd" fill="#231F20" d="M654.92,740.48c-11.27,25.15-20.82,53.09-43.5,75.11
					c-5.88,5.68-12.45,4.14-18.75,0.86c-20.08-10.41-38.18-23.15-54.98-37.44c-7.18-6.11-5.71-11.94,0.98-17.1
					c16.76-12.85,28.59-29.43,42.69-44.31c5.38-5.68,10.33-9.2,19.09-5.86c14.91,5.66,30.13,10.8,45.2,16.18
					C650.98,729.83,656.16,731.99,654.92,740.48z"/>
				<path fill-rule="evenodd" fill="#231F20" d="M407.3,816.01c-7.01,0.32-10.91-3.39-14.19-7.52
					c-17.18-21.72-26.99-46.4-35.66-71.56c-2.94-8.47,2.1-12.44,10.26-14.8c14.24-4.13,28.57-8.13,42.65-12.64
					c8.76-2.82,14.34,0.22,19.06,6.38c12.32,16.12,24.57,32.24,41.5,45.07c4.93,3.74,10.24,9.51,2.56,15.66
					c-18.69,14.97-38.94,27.94-61.23,38.3C410.62,815.64,408.62,815.72,407.3,816.01z"/>
				<path fill-rule="evenodd" fill="#231F20" d="M736.13,622.09c-59.35-1-59.35-1-40.85-46.42c1.31-3.18,2.87-6.23,3.9-9.43
					c9.81-29.98,18.29-36.04,53.62-40.09c8.29-0.96,13.26,0.49,15.37,7.98c5.93,21.1,12.18,42.18,12.77,64.1
					c0.54,20.1-3.04,23.32-25.58,23.83C747.23,622.27,739.14,622.09,736.13,622.09z"/>
				<path fill-rule="evenodd" fill="#231F20" d="M289.19,613.86c-56.75,0.96-59.56-2.11-47.85-51.58c0.25-1.08,0.54-2.18,0.81-3.27
					c10.18-40.86,16.48-43.45,59.76-25.7c7.94,3.22,10.64,8.79,12.78,15.31c5.55,17.14,10.57,34.37,16.94,51.24
					c3.82,10.1-0.5,13.62-10.67,13.92C310.38,614.14,299.78,613.86,289.19,613.86z"/>
				<path fill-rule="evenodd" fill="#231F20" d="M731.11,653.97c-2.72,19.58-5.11,37.28-11.44,54.27
					c-3.69,9.9-10.42,14.37-22.66,12.04c-28.79-5.47-56.36-14.02-82.93-25.23c-3.18-1.34-7.46-2.44-7.5-6.56
					c-0.04-3.43,2.91-4.46,6.33-4.56c20.87-0.59,32.75-13.03,41.15-27.54c9.61-16.63,21.08-25.11,42.7-17.43
					c6.09,2.15,13.51,1.16,20.31,1.9C729.84,642.18,731.77,644.38,731.11,653.97z"/>
				<path fill-rule="evenodd" fill="#231F20" d="M316,713.93c-12.77,0.72-17.42-4.43-20.52-11.95c-7.74-18.62-7.24-38.33-9.6-57.65
					c-0.69-5.65,2.47-9.67,9.42-10.24c13.02-1.06,26.04-1.98,39.07-3.02c9.67-0.75,14.62,4.64,18.91,11.25
					c11.4,17.39,22.32,35.2,47.78,38.93c1.85,0.24,4.38,2.74,4.58,4.37c0.45,3.78-2.87,6.13-6.37,7.33
					C371.29,702.46,342.48,709.38,316,713.93z"/>
				<path fill-rule="evenodd" fill="#231F20" d="M698.17,760.79c-0.67,4.4-1.73,12.69-3.13,20.89c-3.66,21.42-8.47,23.4-30.52,14.25
					c-9.67-4.04-13.35-9.27-9.22-18.41c4.82-10.84,9.46-21.75,14.15-32.62c2.92-6.8,4.75-14.4,16.23-12.34
					c9.98,1.82,12.61,7.96,12.49,15.95C698.14,751.31,698.16,754.11,698.17,760.79z"/>
				<path fill-rule="evenodd" fill="#231F20" d="M329.2,725.13c7.69-0.82,9.19,4.46,11.05,9.19c3.78,9.44,6.92,19.15,11.04,28.5
					c8.23,18.67,5.3,24.2-16.3,30.68c-9.68,2.95-15.69,1.02-18.36-8.14c-4.62-15.93-2.71-32.25-3.21-48.36
					C313.16,728.13,322.3,727.4,329.2,725.13z"/>
				<path fill-rule="evenodd" fill="#231F20" d="M271.03,653.54c0,3.31-0.22,6.62,0.03,9.93c0.7,9.29-6.3,10.67-14.17,11.57
					c-8.53,0.93-12.94-2.53-13.58-9.93c-0.85-9.33-0.28-18.69,2.19-27.91c1.82-6.64,5.47-11.01,14.04-10.14
					c7.82,0.77,9.91,5.67,10.35,11.62c0.37,4.96,0.54,9.92,0.81,14.86C270.81,653.54,270.9,653.54,271.03,653.54z"/>
				<path fill-rule="evenodd" fill="#231F20" d="M786.67,466.86c-8.76-12.86-18.28-25.07-28.58-36.59h-97.43
					c-2.68,9.05-6.99,18.17-12.75,27.33c-11.95,18.96-24.72,37.42-40.18,54.36c-3.36,3.73-10.06,7.3-7.45,12.51
					c3.08,6.12,10.99,3.51,16.85,3.61c55.31,1.05,107.3-12.56,158.2-30.01C797.53,490.44,799.17,485.3,786.67,466.86z"/>
				<path fill-rule="evenodd" fill="#231F20" d="M387.88,430.27c0.37,0.94,0.75,1.89,1.15,2.84
					c21.79,49.66,58.23,90.34,103.93,124.53c11.45,8.6,21.01,8.77,32.79-0.13c33.15-25.02,63.07-52.73,87.54-84.66
					c10.25-13.33,20.41-27.05,25.49-42.58H387.88z"/>
				<path fill-rule="evenodd" fill="#231F20" d="M366.64,430.27h-98.46c-12.94,13.92-24.9,28.82-36.24,44.22
					c-8.64,11.7,1.08,17.19,11.73,21.09c48.75,17.82,98.72,31.3,151.91,32.16c8.33,0.15,19.85,3.98,24.33-3.51
					c4.66-7.75-6.38-13.3-10.82-19.63C392.09,480.35,373.76,456.35,366.64,430.27z"/>
			</g>
			<polygon fill="#231F20" points="673.07,321.95 353.89,321.95 398.09,284.78 626.82,283.61 			"/>
			<path fill-rule="evenodd" fill="#231F20" d="M409.4,90.78c17.51,6.43,33.14,15.67,43.32,33.03c3.7,6.29,9.71,5.09,15.2,5.09
				c48.81,0.07,97.6-0.09,146.4,0.14c16.81,0.07,22.77,7.57,21.4,24.83c-0.7,8.4-4.29,14.55-12.06,15.66
				c-10.82,1.56-10.67,7.59-10.04,17.35c1.56,23.78,4,47.64,1.97,71.64c-0.77,8.88-4.27,12.02-12.15,12.02
				c-60.03-0.11-120.05-0.13-180.08,0.05c-9.64,0.03-13.47-4.3-11.95-14.31c0.14-0.92,0.21-1.85,0.19-2.77
				c-0.12-7.17,5.47-15.49,0.14-21.14c-4.7-4.99-12.23,0.32-18.57,0.29c-33.39-0.07-63.83-25.28-69.71-58.41
				c-6.17-34.64,11.83-66.7,45.08-80.33c2.43-0.97,4.79-2.09,7.17-3.14C386.95,90.78,398.18,90.78,409.4,90.78z M393.4,105.27
				c-26.2-0.11-49.79,17.67-54.98,41.4c-0.66,3.08-2.13,6.75,0.42,9.15c2.28,2.15,4.77-0.45,6.87-1.83
				c25.32-16.5,53.95-20.58,82.48-25.09c2.4-0.36,5.84,0.7,6.29-2.92c0.2-1.66-1.81-4.04-3.33-5.46
				C420.38,110.46,407.96,104.8,393.4,105.27z M419.28,185.86c1.32-14.96-2.97-19.45-17.13-17.66c-9.93,1.27-19.57,4.09-27.85,10.03
				c-7.95,5.68-22.08,9.66-20.63,19.88c1.62,11.13,15.27,15.17,25.91,16.91C410.26,220.02,419.77,216.04,419.28,185.86z"/>
			<polygon fill="#231F20" points="678.54,328.75 348.12,328.75 336.09,343.82 690.68,343.41 			"/>
		</g>
		<polygon fill="#231F20" points="323.56,362.21 275.22,421.6 323.09,421.6 		"/>
		<polygon fill="#231F20" points="700.98,362.21 749.31,421.6 701.44,421.6 		"/>
	</g>
</g>
</svg>
