<?xml version="1.0" encoding="utf-8"?>
<!-- Generator: Adobe Illustrator 24.3.0, SVG Export Plug-In . SVG Version: 6.00 Build 0)  -->
<svg version="1.1" baseProfile="tiny" id="Layer_1" xmlns="http://www.w3.org/2000/svg" xmlns:xlink="http://www.w3.org/1999/xlink"
	 x="0px" y="0px" viewBox="0 0 599.72 829.3" overflow="visible" xml:space="preserve">
<g>
	<path fill-rule="evenodd" fill="#231F20" d="M6.54,297.92c13.38-56.61,30.08-111.75,62.15-160.13
		c9.18-13.81,19.87-26.13,31.64-37.44c5.61-5.39,9.9-6.09,11.85,3.27c0.09,0.5,0.09,1.09,0.35,1.48
		c14.28,21.8,6.31,37.25-8.79,55.81c-35.88,44.1-56.73,97.58-75.21,152.03c-1.13,3.35-1.5,7.31-3.44,9.96
		c-5.56,7.62-14.4,13.45-22.09,10.9c-6.43-2.14-0.66-11.73,0-17.91C3.65,309.84,5.32,303.91,6.54,297.92z"/>
	<g>
		<g>
			<path fill="#231F20" d="M128.3,282.11c0-7.84,3.8-12.02,10.92-12.02h10.02c7.06,0,10.92,4.17,10.92,12.02v8.67
				c0,0.84-0.46,1.34-1.21,1.34h-7.6c-0.83,0-1.21-0.5-1.21-1.34v-6.34c0-2.17-1.06-3.33-3.03-3.33h-5.47
				c-2.04,0-3.03,1.17-3.03,3.33v38.05c0,2.25,1.06,3.33,3.03,3.33h5.47c1.97,0,3.03-1.08,3.03-3.33v-11.18h-3.94
				c-0.85,0-1.22-0.5-1.22-1.34v-8.35c0-0.91,0.38-1.34,1.22-1.34h12.75c0.75,0,1.21,0.42,1.21,1.34v23.2
				c0,7.84-3.86,12.02-10.92,12.02h-10.02c-7.12,0-10.92-4.17-10.92-12.02V282.11z"/>
			<path fill="#231F20" d="M196.13,279.78c0,0.83-0.31,1.42-1.22,1.42h-18.97v16.69h14.49c0.77,0,1.22,0.5,1.22,1.42v8.26
				c0,0.92-0.46,1.42-1.22,1.42h-14.49v16.85h18.97c0.91,0,1.22,0.42,1.22,1.34v8.35c0,0.83-0.31,1.34-1.22,1.34h-27.92
				c-0.68,0-1.14-0.5-1.14-1.34v-64.09c0-0.83,0.46-1.33,1.14-1.33h27.92c0.91,0,1.22,0.5,1.22,1.33V279.78z"/>
			<path fill="#231F20" d="M232.21,302.48c0,5.59-1.91,9.26-5.54,11.02l5.23,21.86c0.23,1-0.23,1.5-1.06,1.5h-7.9
				c-0.75,0-1.13-0.42-1.29-1.17l-5.09-21.2h-5.23v21.03c0,0.83-0.46,1.34-1.21,1.34h-7.9c-0.75,0-1.21-0.5-1.21-1.34v-64.09
				c0-0.83,0.46-1.33,1.21-1.33h19.05c7.14,0,10.94,4.17,10.94,12.02V302.48z M218.85,303.48c1.97,0,3.03-1.17,3.03-3.33v-15.69
				c0-2.17-1.06-3.33-3.03-3.33h-7.51v22.36H218.85z"/>
			<path fill="#231F20" d="M257.31,270.1c7.12,0,10.92,4.17,10.92,12.02v8.84c0,0.84-0.38,1.34-1.21,1.34h-7.89
				c-0.77,0-1.22-0.5-1.22-1.34v-6.51c0-2.17-0.98-3.33-3.03-3.33h-3.65c-1.89,0-3.03,1.17-3.03,3.33v11.52l18.06,6.51
				c1.29,0.58,1.97,1.5,1.97,3.09v19.28c0,7.84-3.8,12.02-10.92,12.02h-8.51c-7.06,0-10.92-4.17-10.92-12.02v-8.76
				c0-0.92,0.46-1.34,1.21-1.34h7.9c0.83,0,1.21,0.42,1.21,1.34v6.43c0,2.25,1.14,3.33,3.03,3.33h3.65c1.97,0,3.03-1.08,3.03-3.33
				v-11.1l-17.98-6.51c-1.37-0.5-2.05-1.5-2.05-3.09v-19.69c0-7.84,3.87-12.02,10.92-12.02H257.31z"/>
			<path fill="#231F20" d="M300.03,270.1c0.83,0,1.21,0.5,1.21,1.33v8.35c0,0.83-0.38,1.33-1.21,1.33h-8.8v54.41
				c0,0.92-0.39,1.34-1.22,1.34h-7.89c-0.76,0-1.22-0.42-1.22-1.34v-54.41h-8.8c-0.75,0-1.21-0.5-1.21-1.33v-8.35
				c0-0.83,0.46-1.33,1.21-1.33H300.03z"/>
			<path fill="#231F20" d="M334.9,279.78c0,0.83-0.31,1.42-1.22,1.42h-18.97v16.69h14.49c0.77,0,1.22,0.5,1.22,1.42v8.26
				c0,0.92-0.46,1.42-1.22,1.42h-14.49v16.85h18.97c0.91,0,1.22,0.42,1.22,1.34v8.35c0,0.83-0.31,1.34-1.22,1.34h-27.93
				c-0.68,0-1.14-0.5-1.14-1.34v-64.09c0-0.83,0.46-1.33,1.14-1.33h27.93c0.91,0,1.22,0.5,1.22,1.33V279.78z"/>
			<path fill="#231F20" d="M406.36,270.1c0.99,0,1.52,0.67,1.45,1.75l-6.54,63.42c-0.08,1.08-0.6,1.58-1.6,1.58h-7.43
				c-0.91,0-1.44-0.5-1.66-1.5l-7.9-37.72l-7.97,37.81c-0.21,0.91-0.75,1.42-1.66,1.42h-7.59c-0.98,0-1.52-0.5-1.58-1.58
				l-6.23-63.42c-0.08-1.08,0.46-1.75,1.44-1.75h7.22c0.9,0,1.52,0.58,1.58,1.58l2.97,39.06h0.37l7.51-39.13
				c0.23-1,0.77-1.5,1.68-1.5h4.55c0.91,0,1.45,0.5,1.66,1.5l7.45,39.13h0.38l3.11-39.06c0.08-1,0.68-1.58,1.6-1.58H406.36z"/>
			<path fill="#231F20" d="M443.74,279.78c0,0.83-0.31,1.42-1.22,1.42h-18.97v16.69h14.49c0.77,0,1.22,0.5,1.22,1.42v8.26
				c0,0.92-0.46,1.42-1.22,1.42h-14.49v16.85h18.97c0.91,0,1.22,0.42,1.22,1.34v8.35c0,0.83-0.31,1.34-1.22,1.34H414.6
				c-0.68,0-1.14-0.5-1.14-1.34v-64.09c0-0.83,0.46-1.33,1.14-1.33h27.93c0.91,0,1.22,0.5,1.22,1.33V279.78z"/>
			<path fill="#231F20" d="M458.5,270.1c0.75,0,1.21,0.5,1.21,1.33v64.09c0,0.83-0.46,1.34-1.21,1.34h-7.9
				c-0.83,0-1.21-0.5-1.21-1.34v-64.09c0-0.83,0.38-1.33,1.21-1.33H458.5z"/>
			<path fill="#231F20" d="M496.6,270.1c0.75,0,1.21,0.5,1.21,1.33v64.09c0,0.83-0.46,1.34-1.21,1.34h-7.51
				c-0.68,0-1.14-0.34-1.37-1.09l-11.62-35.63h-0.38v35.38c0,0.83-0.38,1.34-1.21,1.34h-7.9c-0.75,0-1.21-0.5-1.21-1.34v-64.09
				c0-0.83,0.46-1.33,1.21-1.33h7.51c0.68,0,1.14,0.34,1.37,1.09l11.54,35.46h0.46v-35.22c0-0.83,0.38-1.33,1.21-1.33H496.6z"/>
		</g>
		<g>
			<path fill-rule="evenodd" fill="#231F20" d="M149.53,459.24c28.81,4.83,57.82,6.1,86.98,2.21c7.39-0.99,11.76,2.93,16.47,6.81
				c15.38,12.58,30.15,25.97,51.27,31.08c7.98,1.89,8.44,6.76,3.13,11.32c-30.86,26.37-64.25,49.73-102.77,66.62
				c-8.24,3.62-14.67,0.58-19.5-5.89c-22.7-30.44-39.83-63.05-49.14-98.81C133.24,462.08,136.77,457.1,149.53,459.24z"/>
			<path fill-rule="evenodd" fill="#231F20" d="M308.64,536.4c3.8,2.33,7.51,4.38,10.9,6.8c19.31,13.79,36.87,29.54,57.89,41.46
				c8.99,5.09,11.24,11.04,4.64,19.72c-17.78,23.58-36.42,46.34-59.46,66.19c-12.08,10.41-22.65,10.76-34.2,0.05
				c-22.6-20.96-41.87-44.06-57.45-69.64c-4.05-6.7-3.06-11.24,4.11-15.77c22.25-14.1,44.99-27.63,64.92-44.44
				C302.2,538.91,305.38,537.99,308.64,536.4z"/>
			<path fill-rule="evenodd" fill="#231F20" d="M483.52,471.77c-11.34,36.86-27.15,71.9-52.83,102.99
				c-7.1,8.59-15.28,8.73-24.86,3.64c-25.23-13.43-47.35-30.42-68.89-48.15c-7.25-5.96-6.51-11.36,0.23-17.3
				c13.1-11.54,25.98-23.31,36.63-36.78c8.05-10.2,18.59-13.77,32.79-12.8c20.87,1.39,41.87,0.7,62.63-2.84
				C478.66,458.9,486.31,460.21,483.52,471.77z"/>
			<path fill-rule="evenodd" fill="#231F20" d="M369.43,752.91c-0.44,0.97-1.13,3.2-2.37,5.14c-15.15,22.91-31.98,44.75-51.98,64.54
				c-10.06,9.95-20.84,8.22-28.94-1.13c-17.04-19.63-32.07-40.57-45.11-62.6c-4.75-8.02-2.58-13.82,5.17-18.99
				c16.18-10.81,32.27-21.78,48.28-32.75c5.97-4.14,11.71-6.63,18.64-1.48c17.5,12.96,35.13,25.83,52.68,38.74
				C368.32,746.28,369.98,748.63,369.43,752.91z"/>
			<path fill-rule="evenodd" fill="#231F20" d="M457.93,660.1c-11.45,25.55-21.15,53.94-44.2,76.31
				c-5.97,5.77-12.65,4.21-19.05,0.87c-20.4-10.58-38.79-23.52-55.86-38.04c-7.3-6.21-5.8-12.13,0.99-17.37
				c17.03-13.06,29.05-29.9,43.37-45.02c5.46-5.77,10.49-9.35,19.39-5.95c15.15,5.75,30.61,10.98,45.92,16.44
				C453.93,649.27,459.19,651.47,457.93,660.1z"/>
			<path fill-rule="evenodd" fill="#231F20" d="M206.35,736.84c-7.13,0.32-11.08-3.44-14.41-7.64
				c-17.46-22.07-27.43-47.15-36.23-72.7c-2.99-8.61,2.13-12.63,10.43-15.04c14.47-4.19,29.02-8.27,43.33-12.84
				c8.9-2.86,14.57,0.23,19.36,6.48c12.52,16.38,24.96,32.75,42.16,45.79c5,3.8,10.4,9.66,2.6,15.91
				c-18.99,15.21-39.56,28.39-62.21,38.91C209.72,736.46,207.7,736.54,206.35,736.84z"/>
			<path fill-rule="evenodd" fill="#231F20" d="M540.44,539.81c-60.3-1.02-60.3-1.02-41.51-47.16c1.33-3.23,2.91-6.33,3.96-9.58
				c9.97-30.46,18.59-36.62,54.48-40.73c8.43-0.97,13.47,0.5,15.62,8.11c6.03,21.44,12.37,42.86,12.98,65.13
				c0.55,20.42-3.09,23.69-25.99,24.21C551.72,540,543.5,539.81,540.44,539.81z"/>
			<path fill-rule="evenodd" fill="#231F20" d="M86.35,531.45c-57.66,0.98-60.52-2.14-48.62-52.41c0.25-1.09,0.55-2.21,0.82-3.32
				c10.35-41.51,16.75-44.15,60.72-26.11c8.06,3.27,10.82,8.93,12.99,15.56c5.64,17.41,10.74,34.92,17.22,52.06
				c3.88,10.26-0.51,13.84-10.84,14.14C107.88,531.73,97.11,531.45,86.35,531.45z"/>
			<path fill-rule="evenodd" fill="#231F20" d="M535.34,572.2c-2.76,19.89-5.19,37.88-11.62,55.14
				c-3.74,10.06-10.59,14.6-23.03,12.24c-29.25-5.56-57.26-14.24-84.26-25.63c-3.23-1.36-7.58-2.48-7.62-6.67
				c-0.04-3.49,2.95-4.53,6.43-4.63c21.2-0.6,33.28-13.24,41.81-27.98c9.77-16.9,21.42-25.51,43.38-17.71
				c6.19,2.18,13.73,1.17,20.64,1.93C534.05,560.23,536.01,562.46,535.34,572.2z"/>
			<path fill-rule="evenodd" fill="#231F20" d="M113.59,633.12c-12.98,0.73-17.7-4.5-20.85-12.14c-7.86-18.92-7.35-38.94-9.75-58.57
				c-0.7-5.74,2.51-9.83,9.57-10.4c13.23-1.07,26.46-2.01,39.69-3.07c9.82-0.76,14.86,4.71,19.22,11.43
				c11.58,17.67,22.68,35.76,48.55,39.55c1.88,0.24,4.45,2.78,4.66,4.44c0.46,3.84-2.91,6.23-6.47,7.45
				C169.76,621.46,140.5,628.5,113.59,633.12z"/>
			<path fill-rule="evenodd" fill="#231F20" d="M501.87,680.73c-0.68,4.48-1.76,12.9-3.18,21.22c-3.72,21.76-8.6,23.77-31.01,14.48
				c-9.82-4.1-13.57-9.41-9.37-18.7c4.9-11.01,9.61-22.09,14.37-33.14c2.97-6.91,4.83-14.63,16.49-12.53
				c10.14,1.85,12.81,8.09,12.69,16.21C501.85,671.1,501.86,673.94,501.87,680.73z"/>
			<path fill-rule="evenodd" fill="#231F20" d="M127,644.5c7.81-0.83,9.34,4.54,11.23,9.33c3.84,9.59,7.03,19.46,11.22,28.95
				c8.36,18.97,5.38,24.59-16.56,31.17c-9.84,3-15.94,1.03-18.65-8.27c-4.7-16.18-2.75-32.77-3.26-49.13
				C110.71,647.55,119.99,646.81,127,644.5z"/>
			<path fill-rule="evenodd" fill="#231F20" d="M67.9,571.76c0,3.36-0.23,6.72,0.03,10.08c0.71,9.44-6.4,10.84-14.4,11.75
				c-8.67,0.94-13.15-2.57-13.79-10.08c-0.86-9.48-0.28-18.99,2.23-28.36c1.85-6.75,5.56-11.18,14.26-10.3
				c7.94,0.78,10.06,5.76,10.52,11.81c0.38,5.04,0.55,10.08,0.82,15.1C67.67,571.76,67.77,571.76,67.9,571.76z"/>
			<path fill-rule="evenodd" fill="#231F20" d="M591.79,382.1c-8.9-13.06-18.57-25.47-29.04-37.18h-98.99
				c-2.72,9.19-7.1,18.46-12.95,27.77c-12.14,19.26-25.12,38.02-40.82,55.23c-3.41,3.79-10.23,7.41-7.57,12.71
				c3.13,6.21,11.16,3.57,17.12,3.66c56.2,1.07,109.01-12.76,160.73-30.49C602.82,406.05,604.49,400.83,591.79,382.1z"/>
			<path fill-rule="evenodd" fill="#231F20" d="M186.62,344.92c0.38,0.96,0.76,1.92,1.17,2.88
				c22.14,50.45,59.16,91.79,105.59,126.53c11.63,8.74,21.35,8.91,33.32-0.13c33.68-25.42,64.07-53.57,88.94-86.01
				c10.41-13.55,20.73-27.48,25.9-43.26H186.62z"/>
			<path fill-rule="evenodd" fill="#231F20" d="M165.04,344.92H65c-13.15,14.14-25.3,29.28-36.82,44.93
				c-8.78,11.89,1.1,17.46,11.92,21.42c49.53,18.11,100.3,31.8,154.34,32.67c8.47,0.15,20.17,4.05,24.72-3.56
				c4.74-7.88-6.48-13.51-10.99-19.94C190.9,395.81,172.27,371.42,165.04,344.92z"/>
		</g>
		<polygon fill="#231F20" points="476.38,234.87 152.09,234.87 196.99,197.11 429.39,195.92 		"/>
		<path fill-rule="evenodd" fill="#231F20" d="M208.49,0c17.79,6.54,33.67,15.92,44.01,33.56c3.76,6.39,9.86,5.17,15.44,5.17
			c49.6,0.07,99.16-0.09,148.75,0.15c17.08,0.07,23.13,7.69,21.74,25.23c-0.71,8.53-4.36,14.78-12.25,15.91
			c-10.99,1.59-10.84,7.72-10.2,17.63c1.58,24.16,4.07,48.4,2,72.78c-0.78,9.02-4.33,12.21-12.34,12.21
			c-60.99-0.11-121.97-0.13-182.96,0.05c-9.8,0.03-13.69-4.37-12.14-14.54c0.15-0.94,0.21-1.88,0.19-2.82
			c-0.12-7.29,5.56-15.73,0.15-21.48c-4.78-5.07-12.43,0.32-18.87,0.3c-33.92-0.07-64.85-25.68-70.82-59.34
			c-6.27-35.2,12.02-67.77,45.8-81.62c2.47-0.99,4.87-2.13,7.29-3.19C185.68,0,197.08,0,208.49,0z M192.23,14.73
			c-26.62-0.11-50.59,17.95-55.86,42.06c-0.67,3.13-2.16,6.86,0.43,9.29c2.32,2.18,4.84-0.46,6.98-1.86
			c25.72-16.77,54.81-20.91,83.8-25.5c2.44-0.36,5.93,0.71,6.39-2.97c0.2-1.68-1.84-4.11-3.38-5.55
			C219.64,19.99,207.03,14.24,192.23,14.73z M218.53,96.6c1.34-15.2-3.02-19.77-17.4-17.95c-10.09,1.29-19.89,4.15-28.3,10.19
			c-8.08,5.77-22.44,9.81-20.96,20.19c1.65,11.31,15.51,15.41,26.33,17.18C209.36,131.31,219.02,127.26,218.53,96.6z"/>
		<polygon fill="#231F20" points="481.93,241.78 146.23,241.78 134,257.09 494.26,256.68 		"/>
	</g>
	<polygon fill="#231F20" points="121.27,275.77 72.16,336.12 120.8,336.12 	"/>
	<polygon fill="#231F20" points="504.73,275.77 553.83,336.12 505.2,336.12 	"/>
</g>
</svg>
