<?xml version="1.0" encoding="utf-8"?>
<!-- Generator: Adobe Illustrator 24.3.0, SVG Export Plug-In . SVG Version: 6.00 Build 0)  -->
<svg version="1.1" baseProfile="tiny" xmlns="http://www.w3.org/2000/svg" xmlns:xlink="http://www.w3.org/1999/xlink" x="0px"
	 y="0px" viewBox="0 0 1016 1016" overflow="visible" xml:space="preserve">
<g id="Layer_2">
	<g>
		<path fill="#646464" d="M508,1007c-67.37,0-132.72-13.19-194.23-39.21c-59.42-25.13-112.79-61.11-158.62-106.94
			c-45.83-45.83-81.81-99.2-106.94-158.62C22.19,640.72,9,575.37,9,508c0-67.37,13.19-132.72,39.21-194.23
			c25.13-59.42,61.11-112.79,106.94-158.62s99.2-81.81,158.62-106.94C375.28,22.19,440.63,9,508,9
			c67.37,0,132.72,13.19,194.23,39.21c59.42,25.13,112.79,61.11,158.62,106.94c45.83,45.83,81.81,99.2,106.94,158.62
			C993.81,375.28,1007,440.63,1007,508c0,67.37-13.19,132.72-39.21,194.23c-25.13,59.42-61.11,112.79-106.94,158.62
			c-45.83,45.83-99.2,81.81-158.62,106.94C640.72,993.81,575.37,1007,508,1007z"/>
		<path fill="#282426" d="M508,18c66.16,0,130.33,12.95,190.72,38.5c58.35,24.68,110.75,60.01,155.76,105.02
			c45.01,45.01,80.34,97.41,105.02,155.76C985.05,377.67,998,441.84,998,508s-12.95,130.33-38.5,190.72
			c-24.68,58.35-60.01,110.75-105.02,155.76c-45.01,45.01-97.41,80.34-155.76,105.02C638.33,985.05,574.16,998,508,998
			s-130.33-12.95-190.72-38.5c-58.35-24.68-110.75-60.01-155.76-105.02c-45.01-45.01-80.34-97.41-105.02-155.76
			C30.95,638.33,18,574.16,18,508s12.95-130.33,38.5-190.72c24.68-58.35,60.01-110.75,105.02-155.76
			c45.01-45.01,97.41-80.34,155.76-105.02C377.67,30.95,441.84,18,508,18 M508,0C227.44,0,0,227.44,0,508s227.44,508,508,508
			s508-227.44,508-508S788.56,0,508,0L508,0z"/>
	</g>
</g>
<g id="Layer_4">
	
		<circle fill="none" stroke="#231F20" stroke-width="7.8367" stroke-linecap="round" stroke-linejoin="round" stroke-dasharray="14.3742,47.9141" cx="508" cy="508" r="456"/>
</g>
<g id="Layer_1">
	<g>
		<path fill-rule="evenodd" fill="#231F20" d="M304.37,426.96c9.29-39.3,20.88-77.58,43.15-111.17c6.37-9.59,13.8-18.14,21.97-25.99
			c3.89-3.74,6.87-4.22,8.23,2.27c0.06,0.35,0.06,0.75,0.24,1.03c9.91,15.13,4.38,25.86-6.1,38.74
			c-24.91,30.62-39.39,67.74-52.21,105.54c-0.78,2.32-1.04,5.08-2.38,6.92c-3.86,5.29-10,9.33-15.33,7.56
			c-4.46-1.49-0.46-8.14,0-12.44C302.37,435.24,303.52,431.12,304.37,426.96z"/>
		<g>
			<g>
				<path fill="#231F20" d="M388.9,415.99c0-5.44,2.64-8.34,7.58-8.34h6.96c4.9,0,7.58,2.9,7.58,8.34v6.02
					c0,0.58-0.32,0.93-0.84,0.93h-5.27c-0.58,0-0.84-0.35-0.84-0.93v-4.4c0-1.5-0.74-2.32-2.11-2.32h-3.8
					c-1.42,0-2.11,0.81-2.11,2.32v26.42c0,1.57,0.74,2.32,2.11,2.32h3.8c1.37,0,2.11-0.75,2.11-2.32v-7.76h-2.74
					c-0.59,0-0.85-0.35-0.85-0.93v-5.79c0-0.63,0.26-0.93,0.85-0.93h8.85c0.52,0,0.84,0.29,0.84,0.93v16.11
					c0,5.44-2.68,8.34-7.58,8.34h-6.96c-4.95,0-7.58-2.9-7.58-8.34V415.99z"/>
				<path fill="#231F20" d="M435.99,414.37c0,0.58-0.21,0.98-0.85,0.98h-13.17v11.59h10.06c0.53,0,0.85,0.35,0.85,0.98v5.73
					c0,0.64-0.32,0.99-0.85,0.99h-10.06v11.7h13.17c0.63,0,0.85,0.29,0.85,0.93v5.79c0,0.58-0.21,0.93-0.85,0.93h-19.39
					c-0.48,0-0.79-0.35-0.79-0.93v-44.49c0-0.58,0.32-0.93,0.79-0.93h19.39c0.63,0,0.85,0.35,0.85,0.93V414.37z"/>
				<path fill="#231F20" d="M461.04,430.13c0,3.88-1.32,6.43-3.85,7.65l3.63,15.17c0.16,0.69-0.16,1.04-0.74,1.04h-5.49
					c-0.52,0-0.78-0.29-0.89-0.81l-3.53-14.71h-3.63v14.6c0,0.58-0.32,0.93-0.84,0.93h-5.49c-0.52,0-0.84-0.35-0.84-0.93v-44.49
					c0-0.58,0.32-0.93,0.84-0.93h13.23c4.96,0,7.59,2.9,7.59,8.34V430.13z M451.76,430.82c1.37,0,2.11-0.81,2.11-2.32v-10.89
					c0-1.5-0.74-2.32-2.11-2.32h-5.22v15.52H451.76z"/>
				<path fill="#231F20" d="M478.46,407.65c4.95,0,7.58,2.9,7.58,8.34v6.14c0,0.58-0.26,0.93-0.84,0.93h-5.48
					c-0.53,0-0.85-0.34-0.85-0.93v-4.52c0-1.5-0.68-2.32-2.11-2.32h-2.53c-1.31,0-2.11,0.81-2.11,2.32v8l12.54,4.52
					c0.89,0.41,1.37,1.04,1.37,2.14v13.38c0,5.44-2.64,8.34-7.58,8.34h-5.91c-4.9,0-7.58-2.9-7.58-8.34v-6.08
					c0-0.64,0.32-0.93,0.84-0.93h5.49c0.58,0,0.84,0.29,0.84,0.93v4.46c0,1.57,0.79,2.32,2.11,2.32h2.53c1.37,0,2.11-0.75,2.11-2.32
					v-7.7l-12.48-4.52c-0.95-0.34-1.43-1.04-1.43-2.14v-13.67c0-5.44,2.68-8.34,7.58-8.34H478.46z"/>
				<path fill="#231F20" d="M508.12,407.65c0.58,0,0.84,0.35,0.84,0.93v5.79c0,0.58-0.26,0.93-0.84,0.93h-6.11v37.77
					c0,0.64-0.27,0.93-0.85,0.93h-5.48c-0.53,0-0.85-0.29-0.85-0.93V415.3h-6.11c-0.52,0-0.84-0.35-0.84-0.93v-5.79
					c0-0.58,0.32-0.93,0.84-0.93H508.12z"/>
				<path fill="#231F20" d="M532.33,414.37c0,0.58-0.21,0.98-0.85,0.98h-13.17v11.59h10.06c0.53,0,0.85,0.35,0.85,0.98v5.73
					c0,0.64-0.32,0.99-0.85,0.99h-10.06v11.7h13.17c0.63,0,0.85,0.29,0.85,0.93v5.79c0,0.58-0.21,0.93-0.85,0.93H512.1
					c-0.48,0-0.79-0.35-0.79-0.93v-44.49c0-0.58,0.32-0.93,0.79-0.93h19.39c0.63,0,0.85,0.35,0.85,0.93V414.37z"/>
				<path fill="#231F20" d="M581.93,407.65c0.69,0,1.05,0.47,1.01,1.22l-4.54,44.03c-0.06,0.75-0.42,1.1-1.11,1.1h-5.16
					c-0.63,0-1-0.35-1.16-1.04l-5.49-26.19l-5.53,26.25c-0.15,0.63-0.52,0.98-1.16,0.98h-5.27c-0.68,0-1.05-0.35-1.1-1.1
					l-4.32-44.03c-0.06-0.75,0.32-1.22,1-1.22h5.01c0.62,0,1.05,0.41,1.1,1.1l2.06,27.11h0.26l5.22-27.17
					c0.16-0.69,0.53-1.04,1.16-1.04h3.16c0.63,0,1.01,0.35,1.16,1.04l5.17,27.17h0.26l2.16-27.11c0.06-0.69,0.48-1.1,1.11-1.1
					H581.93z"/>
				<path fill="#231F20" d="M607.89,414.37c0,0.58-0.21,0.98-0.85,0.98h-13.17v11.59h10.06c0.53,0,0.85,0.35,0.85,0.98v5.73
					c0,0.64-0.32,0.99-0.85,0.99h-10.06v11.7h13.17c0.63,0,0.85,0.29,0.85,0.93v5.79c0,0.58-0.21,0.93-0.85,0.93h-19.39
					c-0.48,0-0.79-0.35-0.79-0.93v-44.49c0-0.58,0.32-0.93,0.79-0.93h19.39c0.63,0,0.85,0.35,0.85,0.93V414.37z"/>
				<path fill="#231F20" d="M618.14,407.65c0.52,0,0.84,0.35,0.84,0.93v44.49c0,0.58-0.32,0.93-0.84,0.93h-5.49
					c-0.58,0-0.84-0.35-0.84-0.93v-44.49c0-0.58,0.26-0.93,0.84-0.93H618.14z"/>
				<path fill="#231F20" d="M644.58,407.65c0.52,0,0.84,0.35,0.84,0.93v44.49c0,0.58-0.32,0.93-0.84,0.93h-5.22
					c-0.48,0-0.79-0.23-0.95-0.75l-8.07-24.73h-0.26v24.56c0,0.58-0.26,0.93-0.84,0.93h-5.49c-0.52,0-0.84-0.35-0.84-0.93v-44.49
					c0-0.58,0.32-0.93,0.84-0.93h5.22c0.48,0,0.79,0.23,0.95,0.75l8.01,24.62h0.32v-24.45c0-0.58,0.26-0.93,0.84-0.93H644.58z"/>
			</g>
			<g>
				<path fill-rule="evenodd" fill="#231F20" d="M403.64,538.95c20,3.35,40.14,4.23,60.38,1.53c5.13-0.68,8.16,2.03,11.43,4.73
					c10.68,8.73,20.93,18.03,35.59,21.58c5.54,1.31,5.86,4.7,2.17,7.86c-21.43,18.3-44.6,34.52-71.35,46.25
					c-5.72,2.51-10.18,0.4-13.53-4.09c-15.76-21.13-27.65-43.77-34.11-68.59C392.33,540.93,394.78,537.47,403.64,538.95z"/>
				<path fill-rule="evenodd" fill="#231F20" d="M514.1,592.52c2.64,1.62,5.22,3.04,7.56,4.72c13.41,9.58,25.6,20.51,40.19,28.78
					c6.24,3.53,7.81,7.67,3.22,13.69c-12.34,16.37-25.28,32.17-41.28,45.95c-8.38,7.23-15.72,7.47-23.74,0.04
					c-15.69-14.55-29.06-30.59-39.88-48.35c-2.81-4.65-2.12-7.8,2.85-10.95c15.45-9.79,31.23-19.18,45.07-30.85
					C509.63,594.27,511.84,593.62,514.1,592.52z"/>
				<path fill-rule="evenodd" fill="#231F20" d="M635.5,547.65c-7.87,25.59-18.85,49.91-36.68,71.5
					c-4.93,5.97-10.61,6.06-17.26,2.53c-17.51-9.32-32.87-21.12-47.83-33.42c-5.03-4.14-4.52-7.89,0.16-12.01
					c9.09-8.01,18.03-16.18,25.43-25.53c5.59-7.08,12.9-9.56,22.77-8.89c14.49,0.96,29.06,0.49,43.48-1.97
					C632.13,538.72,637.44,539.63,635.5,547.65z"/>
				<path fill-rule="evenodd" fill="#231F20" d="M556.3,742.82c-0.31,0.67-0.78,2.22-1.65,3.57c-10.52,15.91-22.2,31.07-36.09,44.81
					c-6.99,6.91-14.47,5.71-20.09-0.78c-11.83-13.63-22.26-28.17-31.32-43.46c-3.3-5.57-1.79-9.6,3.59-13.18
					c11.23-7.5,22.4-15.12,33.52-22.73c4.15-2.87,8.13-4.6,12.94-1.02c12.15,9,24.39,17.93,36.57,26.89
					C555.53,738.22,556.68,739.85,556.3,742.82z"/>
				<path fill-rule="evenodd" fill="#231F20" d="M617.73,678.39c-7.95,17.74-14.68,37.44-30.69,52.98
					c-4.15,4.01-8.78,2.92-13.23,0.61c-14.16-7.35-26.93-16.33-38.78-26.41c-5.07-4.31-4.02-8.42,0.69-12.06
					c11.82-9.06,20.17-20.76,30.11-31.25c3.79-4.01,7.28-6.49,13.46-4.13c10.52,3.99,21.25,7.62,31.88,11.41
					C614.96,670.88,618.61,672.41,617.73,678.39z"/>
				<path fill-rule="evenodd" fill="#231F20" d="M443.09,731.67c-4.95,0.22-7.7-2.39-10.01-5.3
					c-12.12-15.32-19.04-32.73-25.15-50.47c-2.08-5.98,1.48-8.77,7.24-10.44c10.04-2.91,20.15-5.74,30.08-8.91
					c6.18-1.99,10.12,0.16,13.44,4.5c8.69,11.37,17.33,22.74,29.27,31.79c3.47,2.64,7.22,6.71,1.81,11.05
					c-13.18,10.56-27.46,19.71-43.19,27.01C445.43,731.41,444.02,731.46,443.09,731.67z"/>
				<path fill-rule="evenodd" fill="#231F20" d="M675.02,594.89c-41.86-0.71-41.86-0.71-28.81-32.74c0.92-2.24,2.02-4.39,2.75-6.65
					c6.92-21.15,12.9-25.42,37.82-28.28c5.85-0.68,9.35,0.35,10.84,5.63c4.18,14.88,8.59,29.75,9.01,45.21
					c0.38,14.18-2.14,16.45-18.04,16.81C682.85,595.02,677.14,594.89,675.02,594.89z"/>
				<path fill-rule="evenodd" fill="#231F20" d="M359.78,589.09c-40.03,0.68-42.01-1.49-33.75-36.38c0.18-0.76,0.38-1.54,0.57-2.31
					c7.18-28.82,11.63-30.65,42.15-18.13c5.6,2.27,7.51,6.2,9.02,10.8c3.91,12.09,7.45,24.24,11.95,36.14
					c2.69,7.12-0.35,9.6-7.53,9.82C374.72,589.28,367.25,589.09,359.78,589.09z"/>
				<path fill-rule="evenodd" fill="#231F20" d="M671.48,617.38c-1.92,13.81-3.61,26.3-8.07,38.28c-2.6,6.98-7.35,10.14-15.99,8.5
					c-20.31-3.86-39.75-9.89-58.49-17.79c-2.24-0.95-5.26-1.72-5.29-4.63c-0.03-2.42,2.05-3.15,4.46-3.21
					c14.72-0.42,23.1-9.19,29.03-19.43c6.78-11.73,14.87-17.71,30.12-12.3c4.29,1.51,9.53,0.82,14.33,1.34
					C670.58,609.06,671.94,610.61,671.48,617.38z"/>
				<path fill-rule="evenodd" fill="#231F20" d="M378.69,659.66c-9.01,0.51-12.29-3.13-14.48-8.43c-5.46-13.13-5.1-27.03-6.77-40.66
					c-0.48-3.99,1.74-6.82,6.64-7.22c9.18-0.74,18.37-1.4,27.56-2.13c6.82-0.53,10.31,3.27,13.34,7.93
					c8.04,12.27,15.74,24.83,33.7,27.46c1.3,0.17,3.09,1.93,3.23,3.08c0.32,2.66-2.02,4.32-4.49,5.17
					C417.68,651.57,397.37,656.46,378.69,659.66z"/>
				<path fill-rule="evenodd" fill="#231F20" d="M648.24,692.72c-0.48,3.11-1.22,8.95-2.21,14.73c-2.58,15.11-5.97,16.5-21.53,10.05
					c-6.82-2.85-9.42-6.54-6.5-12.98c3.4-7.64,6.67-15.34,9.98-23c2.06-4.8,3.35-10.15,11.45-8.7c7.04,1.28,8.9,5.61,8.81,11.25
					C648.22,686.03,648.23,688.01,648.24,692.72z"/>
				<path fill-rule="evenodd" fill="#231F20" d="M388,667.56c5.42-0.58,6.48,3.15,7.8,6.48c2.66,6.66,4.88,13.51,7.79,20.1
					c5.8,13.17,3.74,17.07-11.5,21.64c-6.83,2.08-11.07,0.72-12.95-5.74c-3.26-11.24-1.91-22.75-2.26-34.11
					C376.69,669.68,383.13,669.17,388,667.56z"/>
				<path fill-rule="evenodd" fill="#231F20" d="M346.97,617.07c0,2.33-0.16,4.67,0.02,7c0.49,6.55-4.44,7.53-10,8.16
					c-6.02,0.65-9.13-1.78-9.58-7c-0.6-6.58-0.2-13.18,1.55-19.69c1.29-4.69,3.86-7.76,9.9-7.15c5.51,0.54,6.99,4,7.3,8.2
					c0.26,3.5,0.38,7,0.57,10.48C346.81,617.07,346.88,617.07,346.97,617.07z"/>
				<path fill-rule="evenodd" fill="#231F20" d="M710.67,485.4c-6.18-9.07-12.89-17.68-20.16-25.81h-68.72
					c-1.89,6.38-4.93,12.81-8.99,19.28c-8.43,13.37-17.44,26.4-28.34,38.34c-2.37,2.63-7.1,5.15-5.25,8.82
					c2.17,4.31,7.75,2.48,11.89,2.54c39.01,0.74,75.68-8.86,111.58-21.17C718.32,502.03,719.48,498.41,710.67,485.4z"/>
				<path fill-rule="evenodd" fill="#231F20" d="M429.39,459.59c0.26,0.67,0.53,1.33,0.81,2c15.37,35.03,41.07,63.72,73.3,87.84
					c8.08,6.07,14.82,6.19,23.13-0.09c23.38-17.65,44.48-37.19,61.74-59.71c7.23-9.4,14.39-19.08,17.98-30.03H429.39z"/>
				<path fill-rule="evenodd" fill="#231F20" d="M414.41,459.59h-69.45c-9.13,9.82-17.56,20.33-25.56,31.19
					c-6.09,8.25,0.76,12.12,8.27,14.87c34.38,12.57,69.63,22.08,107.15,22.68c5.88,0.1,14,2.81,17.16-2.47
					c3.29-5.47-4.5-9.38-7.63-13.84C432.36,494.92,419.43,477.99,414.41,459.59z"/>
			</g>
			<polygon fill="#231F20" points="630.54,383.2 405.42,383.2 436.59,356.98 597.92,356.15 			"/>
			<path fill-rule="evenodd" fill="#231F20" d="M444.57,220.14c12.35,4.54,23.37,11.05,30.56,23.3c2.61,4.43,6.85,3.59,10.72,3.59
				c34.43,0.05,68.84-0.06,103.26,0.1c11.86,0.05,16.06,5.34,15.09,17.51c-0.49,5.92-3.03,10.26-8.51,11.04
				c-7.63,1.1-7.53,5.36-7.08,12.24c1.1,16.77,2.82,33.6,1.39,50.53c-0.54,6.26-3.01,8.48-8.57,8.48
				c-42.34-0.07-84.68-0.09-127.02,0.04c-6.8,0.02-9.5-3.03-8.43-10.09c0.1-0.65,0.15-1.3,0.13-1.96
				c-0.08-5.06,3.86-10.92,0.1-14.91c-3.32-3.52-8.63,0.22-13.1,0.21c-23.55-0.05-45.02-17.83-49.17-41.2
				c-4.35-24.43,8.35-47.05,31.79-56.66c1.71-0.68,3.38-1.48,5.06-2.21C428.73,220.14,436.65,220.14,444.57,220.14z M433.28,230.37
				c-18.48-0.07-35.12,12.46-38.78,29.2c-0.47,2.18-1.5,4.76,0.3,6.45c1.61,1.51,3.36-0.32,4.84-1.29
				c17.86-11.64,38.05-14.51,58.17-17.7c1.7-0.25,4.12,0.49,4.43-2.06c0.14-1.17-1.28-2.85-2.35-3.85
				C452.31,234.02,443.55,230.03,433.28,230.37z M451.54,287.2c0.93-10.55-2.1-13.72-12.08-12.46c-7.01,0.89-13.81,2.88-19.65,7.08
				c-5.61,4.01-15.58,6.81-14.55,14.02c1.15,7.85,10.77,10.7,18.28,11.92C445.17,311.3,451.88,308.49,451.54,287.2z"/>
			<polygon fill="#231F20" points="634.4,387.99 401.35,387.99 392.86,398.62 642.96,398.33 			"/>
		</g>
		<polygon fill="#231F20" points="384.02,411.59 349.92,453.48 383.69,453.48 		"/>
		<polygon fill="#231F20" points="650.23,411.59 684.31,453.48 650.55,453.48 		"/>
	</g>
</g>
<g id="Layer_3">
	<g display="none">
		<path display="inline" fill="#231F20" d="M289.49,876.76c-0.69,0-1-0.37-1-1v-41.61c0-0.62,0.31-1,1-1h6.48c0.62,0,1,0.37,1,1
			v41.61c0,0.62-0.37,1-1,1H289.49z"/>
		<path display="inline" fill="#231F20" d="M328.8,833.16c0.62,0,1,0.37,1,1v41.61c0,0.62-0.37,1-1,1h-4.92
			c-0.56,0-0.87-0.25-1.12-0.81l-11.71-23.79v23.61c0,0.62-0.31,1-1,1h-5.85c-0.62,0-1-0.37-1-1v-41.61c0-0.62,0.37-1,1-1h4.92
			c0.56,0,0.87,0.25,1.12,0.81l11.71,23.79v-23.61c0-0.62,0.31-1,1-1H328.8z"/>
		<path display="inline" fill="#231F20" d="M376.57,850.54c0,2.3-1.68,4.05-3.92,4.42v0.12c2.24,0.37,3.92,2.12,3.92,4.42v8.28
			c0,5.85-3.18,8.97-9.03,8.97h-14.95c-0.62,0-1-0.37-1-1v-41.61c0-0.69,0.37-1,1-1h14.95c5.85,0,9.03,3.11,9.03,8.97V850.54z
			 M368.66,843.5c0-1.62-0.81-2.49-2.49-2.49h-6.85v9.9h6.85c1.62,0,2.49-0.87,2.49-2.43V843.5z M368.66,861.63
			c0-1.62-0.81-2.49-2.49-2.49h-6.85v9.78h6.85c1.62,0,2.49-0.81,2.49-2.49V861.63z"/>
		<path display="inline" fill="#231F20" d="M407.65,840.39c0,0.62-0.25,1.06-1,1.06h-15.38v9.59h11.71c0.62,0,1,0.37,1,1.06v6.17
			c0,0.69-0.37,1.06-1,1.06h-11.71v9.22h15.38c0.75,0,1,0.31,1,1v6.23c0,0.62-0.25,1-1,1h-22.92c-0.56,0-0.93-0.37-0.93-1v-41.61
			c0-0.62,0.37-1,0.93-1h22.92c0.75,0,1,0.37,1,1V840.39z"/>
		<path display="inline" fill="#231F20" d="M438.74,840.39c0,0.62-0.25,1.06-1,1.06h-15.38v9.59h11.71c0.62,0,1,0.37,1,1.06v6.17
			c0,0.69-0.37,1.06-1,1.06h-11.71v9.22h15.38c0.75,0,1,0.31,1,1v6.23c0,0.62-0.25,1-1,1h-22.92c-0.56,0-0.93-0.37-0.93-1v-41.61
			c0-0.62,0.37-1,0.93-1h22.92c0.75,0,1,0.37,1,1V840.39z"/>
		<path display="inline" fill="#231F20" d="M469.26,854.65c0,3.61-1.18,6.17-3.49,7.6l3.24,13.39c0.19,0.75-0.19,1.12-0.87,1.12
			h-6.1c-0.62,0-0.93-0.31-1.06-0.87l-2.99-12.27h-5.54v12.15c0,0.62-0.37,1-1,1h-6.1c-0.62,0-1-0.37-1-1v-41.61c0-0.62,0.37-1,1-1
			h14.95c5.85,0,8.97,3.11,8.97,8.97V854.65z M458.67,855.58c1.62,0,2.49-0.87,2.49-2.49v-9.41c0-1.62-0.87-2.49-2.49-2.49h-6.23
			v14.39H458.67z"/>
		<path display="inline" fill="#231F20" d="M532.17,833.16c0.87,0,1.31,0.5,1.18,1.31l-5.98,41.17c-0.12,0.75-0.56,1.12-1.37,1.12
			h-6.73c-0.75,0-1.18-0.37-1.37-1.12l-5.73-25.54l-5.79,25.54c-0.19,0.75-0.62,1.12-1.37,1.12h-6.85c-0.81,0-1.25-0.37-1.37-1.18
			l-5.73-41.11c-0.12-0.81,0.31-1.31,1.18-1.31h5.85c0.75,0,1.18,0.37,1.31,1.18l3.05,26.04h0.31l6.1-26.16
			c0.19-0.68,0.62-1.06,1.37-1.06h3.8c0.75,0,1.18,0.37,1.37,1.06l6.1,26.16h0.31l3.18-26.04c0.12-0.81,0.5-1.18,1.31-1.18H532.17z"
			/>
		<path display="inline" fill="#231F20" d="M563.69,840.39c0,0.62-0.25,1.06-1,1.06h-15.38v9.59h11.71c0.62,0,1,0.37,1,1.06v6.17
			c0,0.69-0.37,1.06-1,1.06h-11.71v9.22h15.38c0.75,0,1,0.31,1,1v6.23c0,0.62-0.25,1-1,1h-22.92c-0.56,0-0.93-0.37-0.93-1v-41.61
			c0-0.62,0.37-1,0.93-1h22.92c0.75,0,1,0.37,1,1V840.39z"/>
		<path display="inline" fill="#231F20" d="M608.16,833.16c0.69,0,1,0.37,1,1v6.23c0,0.62-0.31,1-1,1h-7.22v34.38c0,0.68-0.31,1-1,1
			h-6.48c-0.62,0-1-0.31-1-1v-34.38h-7.23c-0.62,0-1-0.37-1-1v-6.23c0-0.62,0.37-1,1-1H608.16z"/>
		<path display="inline" fill="#231F20" d="M639.06,854.65c0,3.61-1.18,6.17-3.49,7.6l3.24,13.39c0.19,0.75-0.19,1.12-0.87,1.12
			h-6.1c-0.62,0-0.93-0.31-1.06-0.87l-2.99-12.27h-5.54v12.15c0,0.62-0.37,1-1,1h-6.1c-0.62,0-1-0.37-1-1v-41.61c0-0.62,0.37-1,1-1
			h14.95c5.85,0,8.97,3.11,8.97,8.97V854.65z M628.47,855.58c1.62,0,2.49-0.87,2.49-2.49v-9.41c0-1.62-0.87-2.49-2.49-2.49h-6.23
			v14.39H628.47z"/>
		<path display="inline" fill="#231F20" d="M668.96,833.16c0.69,0,1.25,0.56,1.25,1.25v33.39c0,5.85-3.12,8.97-8.97,8.97h-6.98
			c-5.86,0-8.97-3.11-8.97-8.97v-33.39c0-0.69,0.56-1.25,1.25-1.25h5.98c0.68,0,1.25,0.56,1.25,1.25v31.64
			c0,1.68,0.87,2.49,2.49,2.49h3.24c1.62,0,2.49-0.81,2.49-2.49v-31.64c0-0.69,0.56-1.25,1.25-1.25H668.96z"/>
		<path display="inline" fill="#231F20" d="M691.76,833.16c5.86,0,8.97,3.11,8.97,8.97v4.11c0,0.62-0.31,1-1,1h-6.29
			c-0.62,0-1-0.37-1-1v-2.62c0-1.62-0.81-2.49-2.49-2.49h-3.43c-1.56,0-2.49,0.87-2.49,2.49v5.29l15.07,4.86
			c1.06,0.37,1.62,1.12,1.62,2.3v11.71c0,5.85-3.11,8.97-8.97,8.97h-6.98c-5.79,0-8.97-3.11-8.97-8.97v-4.05c0-0.69,0.37-1,1-1h6.29
			c0.69,0,1,0.31,1,1v2.62c0,1.68,0.93,2.49,2.49,2.49h3.36c1.62,0,2.49-0.81,2.49-2.49v-6.29l-14.95-4.86
			c-1.12-0.37-1.68-1.12-1.68-2.3v-10.78c0-5.86,3.18-8.97,8.97-8.97H691.76z"/>
		<path display="inline" fill="#231F20" d="M727.76,833.16c0.69,0,1,0.37,1,1v6.23c0,0.62-0.31,1-1,1h-7.22v34.38c0,0.68-0.31,1-1,1
			h-6.48c-0.62,0-1-0.31-1-1v-34.38h-7.23c-0.62,0-1-0.37-1-1v-6.23c0-0.62,0.37-1,1-1H727.76z"/>
	</g>
	<g display="none">
		<path display="inline" fill="#231F20" d="M232.09,178.76c-0.69,0-1-0.37-1-1v-41.61c0-0.62,0.31-1,1-1h6.48c0.62,0,1,0.37,1,1
			v41.61c0,0.62-0.37,1-1,1H232.09z"/>
		<path display="inline" fill="#231F20" d="M271.4,135.16c0.62,0,1,0.37,1,1v41.61c0,0.62-0.37,1-1,1h-4.92
			c-0.56,0-0.87-0.25-1.12-0.81l-11.71-23.79v23.61c0,0.62-0.31,1-1,1h-5.85c-0.62,0-1-0.37-1-1v-41.61c0-0.62,0.37-1,1-1h4.92
			c0.56,0,0.87,0.25,1.12,0.81l11.71,23.79v-23.61c0-0.62,0.31-1,1-1H271.4z"/>
		<path display="inline" fill="#231F20" d="M319.17,150.86c0,0.62-0.37,1-1,1h-5.85c-0.69,0-1-0.37-1-1v-5.11
			c0-1.62-0.87-2.49-2.49-2.49h-3.99c-1.68,0-2.49,0.87-2.49,2.49v22.61c0,1.68,0.87,2.49,2.49,2.49h3.99
			c1.62,0,2.49-0.81,2.49-2.49v-5.29c0-0.62,0.31-1,1-1h5.85c0.62,0,1,0.37,1,1v6.73c0,5.85-3.18,8.97-8.97,8.97h-6.98
			c-5.85,0-9.03-3.11-9.03-8.97v-25.66c0-5.86,3.18-8.97,9.03-8.97h6.98c5.79,0,8.97,3.11,8.97,8.97V150.86z"/>
		<path display="inline" fill="#231F20" d="M350.25,142.39c0,0.62-0.25,1.06-1,1.06h-15.38v9.59h11.71c0.62,0,1,0.37,1,1.06v6.17
			c0,0.69-0.37,1.06-1,1.06h-11.71v9.22h15.38c0.75,0,1,0.31,1,1v6.23c0,0.62-0.25,1-1,1h-22.92c-0.56,0-0.93-0.37-0.93-1v-41.61
			c0-0.62,0.37-1,0.93-1h22.92c0.75,0,1,0.37,1,1V142.39z"/>
		<path display="inline" fill="#231F20" d="M380.78,156.65c0,3.61-1.18,6.17-3.49,7.6l3.24,13.39c0.19,0.75-0.19,1.12-0.87,1.12
			h-6.1c-0.62,0-0.93-0.31-1.06-0.87l-2.99-12.27h-5.54v12.15c0,0.62-0.37,1-1,1h-6.1c-0.62,0-1-0.37-1-1v-41.61c0-0.62,0.37-1,1-1
			h14.95c5.85,0,8.97,3.11,8.97,8.97V156.65z M370.19,157.58c1.62,0,2.49-0.87,2.49-2.49v-9.41c0-1.62-0.87-2.49-2.49-2.49h-6.23
			v14.39H370.19z"/>
		<path display="inline" fill="#231F20" d="M413.42,135.16c0.93,0,1.31,0.5,1.12,1.37l-9.9,41.11c-0.19,0.75-0.62,1.12-1.37,1.12
			h-6.23c-0.75,0-1.18-0.37-1.37-1.12l-9.84-41.11c-0.19-0.87,0.19-1.37,1.12-1.37h5.67c0.75,0,1.18,0.37,1.37,1.12l6.17,28.15
			l6.23-28.15c0.19-0.75,0.62-1.12,1.37-1.12H413.42z"/>
		<path display="inline" fill="#231F20" d="M420.58,178.76c-0.69,0-1-0.37-1-1v-41.61c0-0.62,0.31-1,1-1h6.48c0.62,0,1,0.37,1,1
			v41.61c0,0.62-0.37,1-1,1H420.58z"/>
		<path display="inline" fill="#231F20" d="M450.23,135.16c5.85,0,8.97,3.11,8.97,8.97v4.11c0,0.62-0.31,1-1,1h-6.29
			c-0.62,0-1-0.37-1-1v-2.62c0-1.62-0.81-2.49-2.49-2.49H445c-1.56,0-2.49,0.87-2.49,2.49v5.29l15.07,4.86
			c1.06,0.37,1.62,1.12,1.62,2.3v11.71c0,5.85-3.11,8.97-8.97,8.97h-6.98c-5.79,0-8.97-3.11-8.97-8.97v-4.05c0-0.69,0.37-1,1-1h6.29
			c0.69,0,1,0.31,1,1v2.62c0,1.68,0.93,2.49,2.49,2.49h3.36c1.62,0,2.49-0.81,2.49-2.49v-6.29l-14.95-4.86
			c-1.12-0.37-1.68-1.12-1.68-2.3v-10.78c0-5.86,3.18-8.97,8.97-8.97H450.23z"/>
		<path display="inline" fill="#231F20" d="M466.42,178.76c-0.69,0-1-0.37-1-1v-41.61c0-0.62,0.31-1,1-1h6.48c0.62,0,1,0.37,1,1
			v41.61c0,0.62-0.37,1-1,1H466.42z"/>
		<path display="inline" fill="#231F20" d="M503.49,178.76c-0.56,0-0.87-0.31-1-0.87l-1.99-7.85h-11.71l-1.93,7.85
			c-0.12,0.56-0.44,0.87-1,0.87h-6.1c-0.69,0-1-0.37-0.81-1.06l10.34-41.67c0.12-0.62,0.5-0.87,1.06-0.87H499
			c0.56,0,0.93,0.25,1.06,0.87l10.34,41.67c0.19,0.68-0.12,1.06-0.87,1.06H503.49z M494.64,145.88l-3.92,16.94h7.85L494.64,145.88z"
			/>
		<path display="inline" fill="#231F20" d="M546.96,135.16c5.86,0,8.97,3.11,8.97,8.97v4.11c0,0.62-0.31,1-1,1h-6.29
			c-0.62,0-1-0.37-1-1v-2.62c0-1.62-0.81-2.49-2.49-2.49h-3.43c-1.56,0-2.49,0.87-2.49,2.49v5.29l15.07,4.86
			c1.06,0.37,1.62,1.12,1.62,2.3v11.71c0,5.85-3.11,8.97-8.97,8.97h-6.98c-5.79,0-8.97-3.11-8.97-8.97v-4.05c0-0.69,0.37-1,1-1h6.29
			c0.69,0,1,0.31,1,1v2.62c0,1.68,0.93,2.49,2.49,2.49h3.36c1.62,0,2.49-0.81,2.49-2.49v-6.29l-14.95-4.86
			c-1.12-0.37-1.68-1.12-1.68-2.3v-10.78c0-5.86,3.18-8.97,8.97-8.97H546.96z"/>
		<path display="inline" fill="#231F20" d="M562.16,136.16c0-0.62,0.37-1,1-1h14.95c5.86,0,8.97,3.11,8.97,8.97v12.21
			c0,5.79-3.11,8.91-8.97,8.97l-7.85,0.06v12.46c0,0.62-0.31,1-1,1l-6.1-0.06c-0.62,0-1-0.37-1-1V136.16z M576.49,157.27
			c1.68,0,2.49-0.93,2.49-2.49v-9.09c0-1.62-0.81-2.49-2.49-2.49l-6.23,0.06v14.08L576.49,157.27z"/>
		<path display="inline" fill="#231F20" d="M618.16,142.39c0,0.62-0.25,1.06-1,1.06h-15.38v9.59h11.71c0.62,0,1,0.37,1,1.06v6.17
			c0,0.69-0.37,1.06-1,1.06h-11.71v9.22h15.38c0.75,0,1,0.31,1,1v6.23c0,0.62-0.25,1-1,1h-22.92c-0.56,0-0.93-0.37-0.93-1v-41.61
			c0-0.62,0.37-1,0.93-1h22.92c0.75,0,1,0.37,1,1V142.39z"/>
		<path display="inline" fill="#231F20" d="M648.68,156.65c0,3.61-1.18,6.17-3.49,7.6l3.24,13.39c0.19,0.75-0.19,1.12-0.87,1.12
			h-6.1c-0.62,0-0.93-0.31-1.06-0.87l-2.99-12.27h-5.54v12.15c0,0.62-0.37,1-1,1h-6.1c-0.62,0-1-0.37-1-1v-41.61c0-0.62,0.37-1,1-1
			h14.95c5.85,0,8.97,3.11,8.97,8.97V156.65z M638.09,157.58c1.62,0,2.49-0.87,2.49-2.49v-9.41c0-1.62-0.87-2.49-2.49-2.49h-6.23
			v14.39H638.09z"/>
		<path display="inline" fill="#231F20" d="M677.02,178.76c-0.56,0-0.87-0.31-1-0.87l-1.99-7.85h-11.71l-1.93,7.85
			c-0.12,0.56-0.44,0.87-1,0.87h-6.1c-0.68,0-1-0.37-0.81-1.06l10.34-41.67c0.12-0.62,0.5-0.87,1.06-0.87h8.66
			c0.56,0,0.93,0.25,1.06,0.87l10.34,41.67c0.19,0.68-0.12,1.06-0.87,1.06H677.02z M668.18,145.88l-3.92,16.94h7.85L668.18,145.88z"
			/>
		<path display="inline" fill="#231F20" d="M722,135.16c0.81,0,1.25,0.44,1.25,1.25v41.11c0,0.81-0.44,1.25-1.25,1.25h-5.79
			c-0.81,0-1.25-0.44-1.25-1.25v-24.48h-0.44l-5.85,24.67c-0.19,0.68-0.62,1.06-1.37,1.06h-3.67c-0.75,0-1.18-0.37-1.37-1.06
			l-5.85-24.67h-0.44v24.48c0,0.81-0.44,1.25-1.25,1.25h-5.73c-0.81,0-1.25-0.44-1.25-1.25v-41.11c0-0.81,0.44-1.25,1.25-1.25h8.22
			c0.75,0,1.18,0.37,1.37,1.06l6.91,27.78l6.91-27.78c0.19-0.68,0.62-1.06,1.37-1.06H722z"/>
		<path display="inline" fill="#231F20" d="M753.14,135.16c0.69,0,1.25,0.56,1.25,1.25v33.39c0,5.85-3.11,8.97-8.97,8.97h-6.98
			c-5.86,0-8.97-3.11-8.97-8.97v-33.39c0-0.69,0.56-1.25,1.25-1.25h5.98c0.68,0,1.25,0.56,1.25,1.25v31.64
			c0,1.68,0.87,2.49,2.49,2.49h3.24c1.62,0,2.49-0.81,2.49-2.49v-31.64c0-0.69,0.56-1.25,1.25-1.25H753.14z"/>
		<path display="inline" fill="#231F20" d="M775.94,135.16c5.85,0,8.97,3.11,8.97,8.97v4.11c0,0.62-0.31,1-1,1h-6.29
			c-0.62,0-1-0.37-1-1v-2.62c0-1.62-0.81-2.49-2.49-2.49h-3.43c-1.56,0-2.49,0.87-2.49,2.49v5.29l15.07,4.86
			c1.06,0.37,1.62,1.12,1.62,2.3v11.71c0,5.85-3.12,8.97-8.97,8.97h-6.98c-5.79,0-8.97-3.11-8.97-8.97v-4.05c0-0.69,0.37-1,1-1h6.29
			c0.69,0,1,0.31,1,1v2.62c0,1.68,0.93,2.49,2.49,2.49h3.36c1.62,0,2.49-0.81,2.49-2.49v-6.29l-14.95-4.86
			c-1.12-0.37-1.68-1.12-1.68-2.3v-10.78c0-5.86,3.18-8.97,8.97-8.97H775.94z"/>
	</g>
	<g>
		<circle fill="none" cx="508" cy="508" r="364"/>
		<path fill="#231F20" d="M775.39,755c0.53-0.56,1.07-0.53,1.58-0.05L811,787.04c0.51,0.48,0.58,1.02,0.05,1.58l-4.99,5.3
			c-0.48,0.51-1.07,0.53-1.58,0.05l-34.02-32.08c-0.51-0.48-0.53-1.07-0.05-1.58L775.39,755z"/>
		<path fill="#231F20" d="M777.53,821.24c-0.51,0.47-1.11,0.45-1.58-0.06l-31.68-34.4c-0.47-0.51-0.45-1.11,0.06-1.58l4.07-3.75
			c0.46-0.43,0.91-0.46,1.54-0.18l27.8,10.76l-17.97-19.52c-0.47-0.52-0.5-1.06,0.06-1.58l4.84-4.46c0.51-0.47,1.11-0.45,1.58,0.07
			l31.68,34.4c0.47,0.52,0.45,1.11-0.07,1.58l-4.07,3.75c-0.46,0.43-0.91,0.46-1.54,0.18l-27.8-10.76l17.97,19.52
			c0.47,0.51,0.5,1.06-0.07,1.58L777.53,821.24z"/>
		<path fill="#231F20" d="M720.24,841.92c-0.4-0.58-0.29-1.16,0.29-1.56l5.42-3.73c0.63-0.44,1.16-0.29,1.56,0.29l3.25,4.73
			c1.03,1.5,2.39,1.75,3.89,0.72l3.69-2.54c1.56-1.07,1.75-2.39,0.72-3.89L724.67,815c-1.07-1.56-2.39-1.75-3.89-0.72l-3.69,2.54
			c-1.5,1.03-1.79,2.34-0.72,3.89l3.37,4.9c0.4,0.58,0.35,1.12-0.29,1.56l-5.42,3.73c-0.58,0.4-1.16,0.29-1.56-0.29l-4.28-6.23
			c-3.73-5.42-2.77-10.33,2.59-14.02l6.46-4.44c5.42-3.73,10.35-2.87,14.08,2.55l16.34,23.76c3.73,5.42,2.77,10.33-2.65,14.06
			l-6.46,4.44c-5.36,3.69-10.29,2.83-14.02-2.59L720.24,841.92z"/>
		<path fill="#231F20" d="M693.01,868.49c-0.34-0.61-0.34-1.18,0.4-1.59l15.09-8.43l-5.26-9.41l-11.49,6.42
			c-0.61,0.34-1.18,0.18-1.56-0.49l-3.38-6.05c-0.38-0.67-0.21-1.24,0.4-1.58l11.49-6.42l-5.05-9.04l-15.09,8.43
			c-0.73,0.41-1.15,0.24-1.52-0.43l-3.41-6.11c-0.34-0.61-0.3-1.11,0.43-1.52l22.49-12.56c0.55-0.31,1.12-0.15,1.46,0.47l22.8,40.82
			c0.34,0.61,0.18,1.18-0.37,1.49l-22.49,12.56c-0.73,0.41-1.18,0.18-1.52-0.43L693.01,868.49z"/>
		<path fill="#231F20" d="M652.88,869.23c-1.65-3.71-1.6-6.87,0.12-9.4l-9.44-12.28c-0.53-0.68-0.32-1.24,0.38-1.55l6.27-2.78
			c0.64-0.28,1.1-0.11,1.49,0.41l8.67,11.24l5.69-2.53l-5.54-12.48c-0.28-0.64-0.07-1.19,0.57-1.48l6.27-2.78
			c0.64-0.28,1.19-0.07,1.48,0.57l18.98,42.74c0.28,0.64,0.07,1.19-0.57,1.48l-15.36,6.82c-6.01,2.67-10.63,0.89-13.3-5.12
			L652.88,869.23z M663.33,863.44c-1.66,0.74-2.16,2.03-1.42,3.7l4.29,9.66c0.74,1.66,2.03,2.16,3.7,1.42l6.4-2.84l-6.56-14.78
			L663.33,863.44z"/>
		<path fill="#231F20" d="M624.69,904.56c-1,0.33-1.57-0.07-1.68-1.06l-4.06-47.35c-0.07-0.86,0.27-1.42,1.06-1.68l6.64-2.22
			c0.8-0.27,1.39-0.02,1.86,0.71l25.12,40.33c0.51,0.86,0.29,1.53-0.71,1.86l-6.04,2.02c-0.8,0.27-1.39,0.02-1.86-0.71l-16.59-27.82
			l3.37,32.23c0.07,0.86-0.27,1.42-1.06,1.68L624.69,904.56z"/>
		<path fill="#231F20" d="M602.12,859.73c0.75-0.19,1.19,0.13,1.36,0.81l11.6,45.3c0.17,0.68-0.06,1.17-0.81,1.36l-7.05,1.81
			c-0.68,0.17-1.19-0.13-1.36-0.81l-11.6-45.3c-0.17-0.68,0.13-1.19,0.81-1.36L602.12,859.73z"/>
		<path fill="#231F20" d="M579.26,914.89c-6.47,1.19-10.55-1.62-11.74-8.09l-0.84-4.54c-0.13-0.69,0.14-1.17,0.9-1.3l6.95-1.28
			c0.69-0.13,1.18,0.21,1.3,0.9l0.53,2.89c0.33,1.79,1.4,2.59,3.26,2.25l3.79-0.7c1.72-0.32,2.58-1.47,2.25-3.26l-1.08-5.85
			l-17.65-2.31c-1.25-0.2-2.02-0.91-2.26-2.22l-2.38-12.94c-1.19-6.47,1.62-10.55,8.09-11.74l7.71-1.42
			c6.4-1.18,10.55,1.62,11.74,8.09l0.82,4.48c0.14,0.76-0.21,1.18-0.9,1.3l-6.95,1.28c-0.76,0.14-1.16-0.14-1.3-0.9l-0.53-2.89
			c-0.34-1.86-1.54-2.56-3.26-2.25l-3.72,0.68c-1.79,0.33-2.59,1.4-2.25,3.26l1.28,6.95l17.51,2.33c1.31,0.18,2.09,0.9,2.33,2.21
			l2.19,11.91c1.19,6.47-1.69,10.56-8.09,11.74L579.26,914.89z"/>
		<path fill="#231F20" d="M553.2,869.24c0.76-0.09,1.16,0.29,1.24,0.99l5.28,46.46c0.08,0.7-0.22,1.15-0.99,1.24l-7.23,0.82
			c-0.7,0.08-1.16-0.29-1.24-0.99l-5.28-46.46c-0.08-0.7,0.29-1.16,0.99-1.24L553.2,869.24z"/>
		<path fill="#231F20" d="M512.54,872.11c0.63-0.02,0.99,0.31,1.16,0.94l2.58,8.73l13.15-0.51l1.82-8.9c0.12-0.64,0.45-1,1.08-1.02
			l6.86-0.27c0.77-0.03,1.13,0.38,0.96,1.15l-9.78,47.25c-0.11,0.71-0.52,1-1.15,1.03l-9.72,0.38c-0.63,0.02-1.06-0.24-1.23-0.93
			l-13.44-46.34c-0.24-0.76,0.09-1.19,0.93-1.23L512.54,872.11z M523.91,908.65l3.66-19.2l-8.81,0.34L523.91,908.65z"/>
		<path fill="#231F20" d="M460.31,918.29c-6.54-0.69-9.66-4.54-8.97-11.08l0.48-4.59c0.07-0.7,0.47-1.08,1.23-1l7.03,0.74
			c0.7,0.07,1.07,0.54,1,1.23l-0.31,2.92c-0.19,1.81,0.61,2.88,2.49,3.08l3.83,0.4c1.74,0.18,2.89-0.68,3.08-2.49l0.62-5.92
			l-16.27-7.21c-1.14-0.54-1.68-1.44-1.54-2.77l1.38-13.09c0.69-6.54,4.54-9.66,11.08-8.97l7.8,0.82c6.47,0.68,9.66,4.54,8.97,11.08
			l-0.48,4.52c-0.08,0.77-0.54,1.07-1.23,1l-7.03-0.74c-0.77-0.08-1.08-0.46-1-1.23l0.31-2.92c0.2-1.88-0.75-2.89-2.49-3.08
			l-3.76-0.4c-1.81-0.19-2.88,0.61-3.08,2.49l-0.74,7.03l16.13,7.19c1.21,0.55,1.75,1.45,1.61,2.77l-1.27,12.04
			c-0.69,6.54-4.61,9.65-11.08,8.97L460.31,918.29z"/>
		<path fill="#231F20" d="M440.15,914.56c-0.14,0.69-0.63,1.02-1.32,0.88l-16.47-3.31c-6.45-1.3-9.19-5.42-7.9-11.87l2.7-13.45
			c1.28-6.38,5.4-9.12,11.87-7.9l8.66,1.67l2.76-13.73c0.14-0.69,0.56-1.03,1.32-0.88l6.71,1.42c0.69,0.14,1.02,0.63,0.88,1.32
			L440.15,914.56z M429.04,888.12c-1.85-0.37-2.95,0.48-3.3,2.19l-2.01,10.02c-0.36,1.79,0.34,2.92,2.19,3.3l6.88,1.31l3.12-15.51
			L429.04,888.12z"/>
		<path fill="#231F20" d="M377.89,891.76c0.2-0.67,0.61-1.06,1.42-0.82l16.56,4.98l3.1-10.32l-12.6-3.79
			c-0.67-0.2-0.95-0.72-0.73-1.46l2-6.64c0.22-0.74,0.74-1.02,1.42-0.82l12.6,3.79l2.98-9.92l-16.56-4.98
			c-0.8-0.24-0.97-0.66-0.75-1.39l2.02-6.7c0.2-0.67,0.59-0.99,1.4-0.75l24.67,7.42c0.6,0.18,0.88,0.71,0.68,1.38l-13.46,44.78
			c-0.2,0.67-0.73,0.95-1.33,0.77l-24.67-7.42c-0.8-0.24-0.95-0.72-0.75-1.39L377.89,891.76z"/>
		<path fill="#231F20" d="M349.44,863.44c1.52-3.76,3.83-5.93,6.83-6.45l2.26-15.32c0.12-0.86,0.67-1.09,1.38-0.8l6.36,2.57
			c0.65,0.26,0.84,0.72,0.74,1.35l-2.05,14.05l5.78,2.33l5.11-12.66c0.26-0.65,0.81-0.88,1.46-0.62l6.36,2.57
			c0.65,0.26,0.88,0.81,0.62,1.46l-17.51,43.36c-0.26,0.65-0.81,0.88-1.46,0.62l-15.58-6.29c-6.1-2.46-8.04-7.02-5.57-13.12
			L349.44,863.44z M360.87,866.92c-1.69-0.68-2.96-0.14-3.65,1.55l-3.96,9.8c-0.68,1.69-0.14,2.96,1.55,3.64l6.49,2.62l6.06-15
			L360.87,866.92z"/>
		<path fill="#231F20" d="M331.35,826.49c0.56,0.29,0.71,0.76,0.54,1.39l-2.09,8.86l11.67,6.08l6-6.82
			c0.42-0.49,0.89-0.64,1.45-0.35l6.08,3.17c0.68,0.36,0.8,0.89,0.26,1.48l-31.94,36.17c-0.45,0.56-0.95,0.61-1.51,0.32l-8.63-4.49
			c-0.56-0.29-0.8-0.73-0.6-1.42l11.32-46.9c0.17-0.78,0.67-0.99,1.42-0.6L331.35,826.49z M323.09,863.86l12.71-14.85l-7.82-4.07
			L323.09,863.86z"/>
		<path fill="#231F20" d="M262.53,840.68c-0.76-0.51-0.89-1.19-0.38-1.94l25.76-38.35c0.51-0.75,1.19-0.89,1.94-0.38l5.4,3.63
			c0.76,0.51,0.89,1.19,0.38,1.94l-15.34,22.84l0.41,0.27l20.92-19.34c0.6-0.52,1.24-0.6,1.94-0.13l3.43,2.3
			c0.7,0.47,0.87,1.09,0.61,1.85l-9.99,26.68l0.41,0.27l15.34-22.83c0.51-0.76,1.19-0.89,1.94-0.38l5.35,3.59
			c0.76,0.51,0.89,1.19,0.38,1.94l-25.76,38.35c-0.51,0.75-1.19,0.89-1.94,0.38l-7.67-5.15c-0.7-0.47-0.87-1.09-0.61-1.85
			L296,824.12l-23.86,21.58c-0.6,0.52-1.24,0.6-1.94,0.13L262.53,840.68z"/>
		<path fill="#231F20" d="M232.4,815.85c-0.59-0.5-0.66-1.38-0.17-1.97l24.18-28.69c4.24-5.03,9.17-5.45,14.2-1.21l6,5.05
			c5.03,4.24,5.45,9.17,1.21,14.2l-24.18,28.69c-0.5,0.59-1.38,0.67-1.97,0.17l-5.14-4.33c-0.59-0.5-0.66-1.38-0.17-1.97
			l22.91-27.19c1.22-1.45,1.05-2.77-0.34-3.95l-2.78-2.35c-1.39-1.17-2.73-1.11-3.95,0.34l-22.91,27.19
			c-0.5,0.59-1.38,0.66-1.97,0.17L232.4,815.85z"/>
		<path fill="#231F20" d="M211.6,795.63c-4.63-4.68-4.6-9.63,0.08-14.26l3.29-3.25c0.5-0.49,1.04-0.54,1.58,0.01l4.97,5.03
			c0.49,0.5,0.49,1.09-0.01,1.58l-2.09,2.07c-1.29,1.28-1.35,2.62-0.02,3.96l2.71,2.74c1.23,1.25,2.67,1.3,3.96,0.02l4.23-4.18
			l-8.03-15.88c-0.54-1.14-0.38-2.18,0.56-3.12l9.36-9.25c4.68-4.63,9.63-4.6,14.26,0.08l5.51,5.57c4.58,4.63,4.6,9.63-0.08,14.26
			l-3.24,3.2c-0.55,0.54-1.09,0.49-1.58-0.01l-4.97-5.03c-0.54-0.55-0.54-1.04,0.01-1.58l2.09-2.07c1.34-1.33,1.25-2.72,0.02-3.96
			l-2.66-2.69c-1.28-1.29-2.62-1.35-3.96-0.02l-5.03,4.97l7.93,15.79c0.59,1.19,0.43,2.23-0.51,3.17l-8.61,8.52
			c-4.68,4.63-9.68,4.55-14.26-0.08L211.6,795.63z"/>
	</g>
	<g>
		<circle fill="none" cx="508" cy="508" r="364"/>
		<path fill="#231F20" d="M324.69,148.83c-2.79-5.96-1.1-10.61,4.86-13.4l7.1-3.32c5.9-2.76,10.61-1.1,13.4,4.86l2.2,4.69
			c0.3,0.63,0.09,1.19-0.54,1.49l-5.96,2.79c-0.7,0.33-1.19,0.09-1.49-0.54l-1.45-3.11c-0.77-1.65-2.08-2.12-3.72-1.35l-4.06,1.9
			c-1.71,0.8-2.12,2.07-1.35,3.72l10.74,22.95c0.8,1.71,2.07,2.12,3.72,1.35l4.06-1.9c1.65-0.77,2.15-2.01,1.35-3.72l-2.58-5.52
			l-3.3,1.54c-0.7,0.33-1.19,0.09-1.49-0.54l-2.97-6.34c-0.33-0.7-0.16-1.16,0.54-1.49l10.27-4.81c0.63-0.3,1.16-0.16,1.49,0.54
			l6.77,14.46c2.79,5.96,1.04,10.64-4.86,13.4l-7.1,3.32c-5.96,2.79-10.61,1.1-13.4-4.86L324.69,148.83z"/>
		<path fill="#231F20" d="M384.52,122.05c0.24,0.66,0.14,1.21-0.65,1.5l-16.28,5.83l3.64,10.15l12.39-4.44
			c0.66-0.24,1.2,0.02,1.46,0.74l2.34,6.52c0.26,0.73,0.01,1.26-0.65,1.5l-12.39,4.44l3.5,9.75l16.28-5.83
			c0.79-0.28,1.17-0.05,1.43,0.68l2.36,6.59c0.24,0.66,0.11,1.15-0.68,1.43l-24.25,8.69c-0.59,0.21-1.13-0.04-1.37-0.7l-15.78-44.02
			c-0.24-0.66,0.02-1.2,0.61-1.41l24.25-8.69c0.79-0.28,1.2,0.02,1.43,0.68L384.52,122.05z"/>
		<path fill="#231F20" d="M424.21,127.95c1.01,3.93,0.44,7.04-1.66,9.25l7.28,13.66c0.41,0.76,0.11,1.27-0.63,1.46l-6.64,1.71
			c-0.68,0.17-1.1-0.08-1.4-0.65l-6.7-12.51l-6.03,1.56l3.41,13.22c0.17,0.68-0.13,1.19-0.81,1.36l-6.64,1.71
			c-0.68,0.17-1.19-0.13-1.36-0.8l-11.67-45.28c-0.17-0.68,0.13-1.19,0.81-1.36l16.27-4.19c6.37-1.64,10.63,0.87,12.28,7.24
			L424.21,127.95z M412.95,131.94c1.76-0.45,2.47-1.65,2.01-3.41l-2.64-10.23c-0.45-1.76-1.65-2.47-3.41-2.01l-6.78,1.75l4.04,15.66
			L412.95,131.94z"/>
		<path fill="#231F20" d="M446.17,99.58c6.5-1.04,10.51,1.86,11.55,8.36l0.73,4.56c0.11,0.69-0.17,1.16-0.93,1.28l-6.98,1.12
			c-0.69,0.11-1.17-0.24-1.28-0.93l-0.46-2.9c-0.29-1.8-1.34-2.62-3.21-2.32l-3.8,0.61c-1.73,0.28-2.61,1.41-2.32,3.21l0.94,5.88
			l17.59,2.71c1.24,0.23,2,0.96,2.21,2.27l2.08,13c1.04,6.5-1.86,10.51-8.36,11.55l-7.74,1.24c-6.43,1.03-10.51-1.86-11.55-8.36
			l-0.72-4.49c-0.12-0.76,0.24-1.17,0.93-1.28l6.98-1.12c0.76-0.12,1.16,0.17,1.28,0.93l0.46,2.9c0.3,1.87,1.48,2.6,3.21,2.32
			l3.73-0.6c1.8-0.29,2.62-1.34,2.32-3.21l-1.12-6.98l-17.45-2.74c-1.31-0.22-2.07-0.95-2.28-2.26l-1.91-11.96
			c-1.04-6.5,1.93-10.52,8.36-11.55L446.17,99.58z"/>
		<path fill="#231F20" d="M489.53,95.2c0.77-0.06,1.15,0.33,1.2,1.03l0.52,6.98c0.05,0.7-0.27,1.14-1.03,1.2l-8.1,0.61l2.9,38.53
			c0.06,0.77-0.27,1.14-1.03,1.2l-7.26,0.55c-0.7,0.05-1.14-0.26-1.2-1.03l-2.9-38.53l-8.1,0.61c-0.7,0.05-1.15-0.33-1.2-1.03
			l-0.52-6.98c-0.05-0.7,0.33-1.15,1.03-1.2L489.53,95.2z"/>
		<path fill="#231F20" d="M527.4,103.38c-0.01,0.7-0.3,1.19-1.14,1.17l-17.29-0.28l-0.17,10.78l13.16,0.21
			c0.7,0.01,1.11,0.44,1.1,1.21l-0.11,6.93c-0.01,0.77-0.44,1.18-1.14,1.17l-13.16-0.21l-0.17,10.36l17.29,0.28
			c0.84,0.01,1.11,0.37,1.1,1.14l-0.11,7c-0.01,0.7-0.3,1.12-1.14,1.1l-25.76-0.42c-0.63-0.01-1.04-0.44-1.03-1.14l0.75-46.75
			c0.01-0.7,0.44-1.11,1.07-1.1l25.76,0.42c0.84,0.01,1.11,0.44,1.1,1.14L527.4,103.38z"/>
		<path fill="#231F20" d="M603.5,105.46c0.96,0.17,1.35,0.81,1.05,1.68l-14.74,44.37c-0.29,0.8-0.84,1.13-1.74,0.97l-7.44-1.33
			c-0.83-0.15-1.24-0.65-1.29-1.51l-1.3-29.38l-11.45,27.11c-0.35,0.79-0.91,1.12-1.74,0.97l-7.58-1.35
			c-0.9-0.16-1.3-0.66-1.28-1.58l1.78-46.61c0.02-0.92,0.6-1.39,1.57-1.21l6.48,1.16c0.83,0.15,1.24,0.65,1.21,1.57l-1.76,29.41
			l0.34,0.06l11.92-27.74c0.34-0.72,0.9-1.05,1.72-0.9l4.2,0.75c0.83,0.15,1.24,0.65,1.31,1.44l1.59,30.15l0.34,0.06l8.66-28.18
			c0.3-0.87,0.79-1.21,1.68-1.05L603.5,105.46z"/>
		<path fill="#231F20" d="M639.33,124.65c-0.2,0.67-0.61,1.06-1.42,0.81l-16.54-5.03l-3.14,10.31l12.59,3.83
			c0.67,0.2,0.95,0.73,0.73,1.46l-2.02,6.63c-0.22,0.74-0.75,1.02-1.42,0.81l-12.59-3.83l-3.01,9.91l16.54,5.03
			c0.8,0.24,0.97,0.66,0.75,1.4l-2.04,6.7c-0.2,0.67-0.59,0.99-1.4,0.75l-24.64-7.5c-0.6-0.18-0.88-0.71-0.68-1.38l13.61-44.74
			c0.2-0.67,0.73-0.95,1.33-0.77l24.65,7.5c0.8,0.24,0.95,0.73,0.75,1.4L639.33,124.65z"/>
		<path fill="#231F20" d="M634.25,166.47c-0.72-0.27-0.9-0.79-0.65-1.45l16.66-43.7c0.25-0.65,0.73-0.92,1.45-0.65l6.8,2.59
			c0.65,0.25,0.9,0.79,0.65,1.45l-16.65,43.7c-0.25,0.65-0.79,0.9-1.45,0.65L634.25,166.47z"/>
		<path fill="#231F20" d="M694.69,139.25c0.63,0.3,0.84,0.85,0.54,1.49l-19.73,42.39c-0.3,0.63-0.85,0.84-1.49,0.54l-5.01-2.33
			c-0.57-0.27-0.77-0.67-0.76-1.36l-0.65-29.8l-11.2,24.05c-0.29,0.63-0.79,0.87-1.49,0.54l-5.96-2.78
			c-0.63-0.3-0.84-0.85-0.54-1.49l19.73-42.39c0.3-0.63,0.85-0.84,1.49-0.54l5.01,2.33c0.57,0.27,0.77,0.67,0.76,1.36l0.65,29.8
			l11.2-24.05c0.29-0.63,0.79-0.87,1.49-0.54L694.69,139.25z"/>
	</g>
	<g>
	</g>
	<g>
	</g>
	<g>
	</g>
	<g>
	</g>
	<g>
	</g>
	<g>
	</g>
	<g>
	</g>
	<g>
	</g>
	<g>
	</g>
	<g>
	</g>
	<g>
	</g>
	<g>
	</g>
	<g>
	</g>
	<g>
	</g>
	<g>
	</g>
</g>
</svg>
